# Blender v2.92.0 OBJ File: 'istana3_28256_autosave_21692_autosave.blend'
# www.blender.org
o Cube.011_Cube.012
v 1.009078 -0.325773 12.648634
v 1.009078 -0.132409 12.648634
v 1.010718 -0.325773 9.155461
v 1.010718 -0.132409 9.155461
v 4.676069 -0.325773 12.650355
v 4.676069 -0.132409 12.650355
v 4.677709 -0.325773 9.157183
v 4.677709 -0.132409 9.157183
v 2.844214 -0.325773 9.156322
v 2.823198 0.968898 9.201700
v 2.842574 -0.325773 12.649495
v 2.821558 0.968898 12.694874
v 1.009078 -0.229091 12.648634
v 1.010718 -0.229091 9.155461
v 4.677709 -0.229091 9.157183
v 4.676069 -0.229091 12.650355
v 2.832066 0.321563 12.672184
v 2.833706 0.321563 9.179011
v 1.009078 -0.180750 12.648634
v 1.010718 -0.180750 9.155461
v 4.677709 -0.180750 9.157183
v 4.676069 -0.180750 12.650355
v 2.826812 0.645231 12.683529
v 2.828452 0.645231 9.190356
v 1.009078 -0.156579 12.648634
v 1.010718 -0.156579 9.155461
v 4.677709 -0.156579 9.157183
v 4.676069 -0.156579 12.650355
v 2.824185 0.807064 12.689201
v 2.825825 0.807064 9.196028
v 1.009029 -0.159702 12.751000
v 1.009029 -0.135531 12.751000
v 2.821508 0.965776 12.797239
v 4.676020 -0.135531 12.752722
v 4.676020 -0.159702 12.752722
v 2.824135 0.803942 12.791568
v 2.823244 0.971779 9.107261
v 4.677755 -0.129528 9.062742
v 1.010764 -0.129528 9.061021
v 1.010764 -0.153699 9.061021
v 4.677755 -0.153699 9.062742
v 2.825871 0.809945 9.101588
vt 0.593750 0.000000
vt 0.625000 0.000000
vt 0.625000 0.250000
vt 0.593750 0.250000
vt 0.625000 0.500000
vt 0.593750 0.500000
vt 0.593750 0.500000
vt 0.625000 0.500000
vt 0.625000 0.750000
vt 0.593750 0.750000
vt 0.750000 0.750000
vt 0.875000 0.750000
vt 0.875000 0.750000
vt 0.750000 0.750000
vt 0.250000 0.500000
vt 0.375000 0.500000
vt 0.375000 0.750000
vt 0.250000 0.750000
vt 0.750000 0.500000
vt 0.875000 0.500000
vt 0.125000 0.500000
vt 0.125000 0.750000
vt 0.625000 0.750000
vt 0.750000 0.500000
vt 0.875000 0.500000
vt 0.375000 0.250000
vt 0.500000 0.250000
vt 0.500000 0.375000
vt 0.375000 0.375000
vt 0.500000 0.750000
vt 0.500000 0.875000
vt 0.375000 0.875000
vt 0.500000 1.000000
vt 0.375000 1.000000
vt 0.500000 0.500000
vt 0.375000 0.000000
vt 0.500000 0.000000
vt 0.562500 0.250000
vt 0.562500 0.375000
vt 0.562500 0.750000
vt 0.562500 0.875000
vt 0.562500 1.000000
vt 0.562500 0.500000
vt 0.562500 0.000000
vt 0.593750 0.375000
vt 0.593750 0.875000
vt 0.593750 1.000000
vt 0.593750 0.875000
vt 0.625000 0.875000
vt 0.625000 1.000000
vt 0.593750 1.000000
vt 0.593750 0.750000
vt 0.593750 0.000000
vt 0.625000 0.000000
vt 0.593750 0.375000
vt 0.625000 0.375000
vt 0.593750 0.250000
vt 0.625000 0.250000
vn -1.0000 0.0000 -0.0005
vn 1.0000 0.0000 0.0005
vn -0.5196 0.8540 0.0258
vn 0.0000 -1.0000 0.0000
vn -0.5193 0.8546 -0.0002
vn 0.5106 0.8598 0.0002
vn 0.5109 0.8592 0.0265
vn 0.0021 0.0305 -0.9995
vn 0.0011 -0.0305 0.9995
vn -0.0021 -0.0305 0.9995
vn -0.0011 0.0305 -0.9995
vn 0.0045 0.0305 -0.9995
vn 0.0035 -0.0304 0.9995
vn -0.0045 -0.0305 0.9995
vn -0.0035 0.0304 -0.9995
vn 0.0057 0.0306 -0.9995
vn 0.0047 -0.0304 0.9995
vn -0.0057 -0.0306 0.9995
vn -0.0047 0.0304 -0.9995
vn -0.0065 -0.0306 0.9995
vn 0.0055 -0.0304 0.9995
vn -0.4619 -0.8865 -0.0273
vn 0.4692 -0.8827 -0.0267
vn -0.0055 0.0304 -0.9995
vn 0.0065 0.0306 -0.9995
s off
f 25/1/1 2/2/1 4/3/1 26/4/1
f 8/5/2 27/6/2 41/7/2 38/8/2
f 27/6/2 8/5/2 6/9/2 28/10/2
f 12/11/3 2/12/3 32/13/3 33/14/3
f 9/15/4 7/16/4 5/17/4 11/18/4
f 10/19/5 4/20/5 2/12/5 12/11/5
f 8/5/6 10/19/6 12/11/6 6/9/6
f 3/21/4 9/15/4 11/18/4 1/22/4
f 6/9/7 12/11/7 33/14/7 34/23/7
f 4/20/3 10/19/3 37/24/3 39/25/3
f 3/26/8 14/27/8 18/28/8 9/29/8
f 5/17/9 16/30/9 17/31/9 11/32/9
f 11/32/10 17/31/10 13/33/10 1/34/10
f 7/16/2 15/35/2 16/30/2 5/17/2
f 9/29/11 18/28/11 15/35/11 7/16/11
f 1/36/1 13/37/1 14/27/1 3/26/1
f 14/27/12 20/38/12 24/39/12 18/28/12
f 16/30/13 22/40/13 23/41/13 17/31/13
f 17/31/14 23/41/14 19/42/14 13/33/14
f 15/35/2 21/43/2 22/40/2 16/30/2
f 18/28/15 24/39/15 21/43/15 15/35/15
f 13/37/1 19/44/1 20/38/1 14/27/1
f 20/38/16 26/4/16 30/45/16 24/39/16
f 22/40/17 28/10/17 29/46/17 23/41/17
f 23/41/18 29/46/18 25/47/18 19/42/18
f 21/43/2 27/6/2 28/10/2 22/40/2
f 24/39/19 30/45/19 27/6/19 21/43/19
f 19/44/1 25/1/1 26/4/1 20/38/1
f 36/48/20 33/49/20 32/50/20 31/51/20
f 35/52/21 34/23/21 33/49/21 36/48/21
f 29/46/22 28/10/22 35/52/22 36/48/22
f 28/10/2 6/9/2 34/23/2 35/52/2
f 2/2/1 25/1/1 31/53/1 32/54/1
f 25/47/23 29/46/23 36/48/23 31/51/23
f 42/55/24 37/56/24 38/8/24 41/7/24
f 40/57/25 39/58/25 37/56/25 42/55/25
f 10/19/7 8/5/7 38/8/7 37/24/7
f 26/4/1 4/3/1 39/58/1 40/57/1
f 27/6/22 30/45/22 42/55/22 41/7/22
f 30/45/23 26/4/23 40/57/23 42/55/23
