# Blender v2.92.0 OBJ File: 'istana3_28256_autosave_21692_autosave.blend'
# www.blender.org
o Cube.012_Cube.013
v 1.009078 -1.821068 12.648634
v 1.009078 -0.323978 12.648634
v 1.010718 -1.821068 9.155461
v 1.010718 -0.323978 9.155461
v 4.676069 -1.821068 12.650355
v 4.676069 -0.323978 12.650355
v 4.677709 -1.821068 9.157183
v 4.677709 -0.323978 9.157183
v 2.844214 -1.821068 9.156322
v 2.844214 -0.323978 9.156322
v 2.842574 -1.821068 12.649495
v 2.842574 -0.323978 12.649495
v 3.746748 -0.323978 9.156746
v 3.745109 -1.821068 12.649919
v 3.746748 -1.821068 9.156746
v 3.745109 -0.323978 12.649919
v 3.295481 -1.821068 9.156534
v 3.293841 -0.323978 12.649707
v 3.295481 -0.323978 9.156534
v 3.293841 -1.821068 12.649707
v 4.212229 -0.323978 9.156964
v 4.210589 -1.821068 12.650137
v 4.212229 -1.821068 9.156964
v 4.210589 -0.323978 12.650137
v 1.009078 -1.072523 12.648634
v 1.010718 -1.072523 9.155461
v 4.677709 -1.072523 9.157183
v 4.676069 -1.072523 12.650355
v 2.842574 -1.072523 12.649495
v 2.844214 -1.072523 9.156322
v 3.745109 -1.072523 12.649919
v 3.746748 -1.072523 9.156746
v 3.295481 -1.072523 9.156534
v 3.293841 -1.072523 12.649707
v 4.210589 -1.072523 12.650137
v 4.212229 -1.072523 9.156964
v 1.010718 -1.446795 9.155461
v 4.677709 -1.446795 9.157183
v 4.676069 -1.446795 12.650355
v 2.842574 -1.446795 12.649495
v 2.844214 -1.446795 9.156322
v 3.745109 -1.446795 12.649919
v 3.746748 -1.446795 9.156746
v 3.295481 -1.446795 9.156534
v 3.293841 -1.446795 12.649707
v 4.210589 -1.446795 12.650137
v 4.212229 -1.446795 9.156964
v 1.009078 -1.446795 12.648634
v 1.009078 -0.698250 12.648634
v 1.010718 -0.698250 9.155461
v 4.677709 -0.698250 9.157183
v 4.676069 -0.698250 12.650355
v 2.842574 -0.698250 12.649495
v 2.844214 -0.698250 9.156322
v 3.745109 -0.698250 12.649919
v 3.746748 -0.698250 9.156746
v 3.295481 -0.698250 9.156534
v 3.293841 -0.698250 12.649707
v 4.210589 -0.698250 12.650137
v 4.212229 -0.698250 9.156964
v 3.069847 -1.821068 9.156427
v 3.068208 -0.323978 12.649601
v 3.069847 -0.323978 9.156427
v 3.068208 -1.821068 12.649601
v 3.069847 -1.072523 9.156427
v 3.068208 -1.072523 12.649601
v 3.068208 -1.446795 12.649601
v 3.069847 -1.446795 9.156427
v 3.069847 -0.698250 9.156427
v 3.068208 -0.698250 12.649601
v 3.986541 -1.821068 9.156858
v 3.984901 -0.323978 12.650031
v 3.986541 -0.323978 9.156858
v 3.984901 -1.821068 12.650031
v 3.986541 -1.072523 9.156858
v 3.984901 -1.072523 12.650031
v 3.984901 -1.446795 12.650031
v 3.986541 -1.446795 9.156858
v 3.986541 -0.698250 9.156858
v 3.984901 -0.698250 12.650031
v 1.010718 -0.885387 9.155461
v 4.677709 -0.885387 9.157183
v 4.676069 -0.885387 12.650355
v 2.842574 -0.885387 12.649495
v 2.844214 -0.885387 9.156322
v 3.745109 -0.885387 12.649919
v 3.746748 -0.885387 9.156746
v 3.295481 -0.885387 9.156534
v 3.293841 -0.885387 12.649707
v 4.210589 -0.885387 12.650137
v 4.212229 -0.885387 9.156964
v 1.009078 -0.885387 12.648634
v 3.068208 -0.885387 12.649601
v 3.069847 -0.885387 9.156427
v 3.984901 -0.885387 12.650031
v 3.986541 -0.885387 9.156858
v 1.009078 -0.791818 12.648634
v 1.010718 -0.791818 9.155461
v 4.677709 -0.791818 9.157183
v 4.676069 -0.791818 12.650355
v 2.842574 -0.791818 12.649495
v 2.844214 -0.791818 9.156322
v 3.745109 -0.791818 12.649919
v 3.746748 -0.791818 9.156746
v 3.295481 -0.791818 9.156534
v 3.293841 -0.791818 12.649707
v 4.210589 -0.791818 12.650137
v 4.212229 -0.791818 9.156964
v 3.068208 -0.791818 12.649601
v 3.069847 -0.791818 9.156427
v 3.984901 -0.791818 12.650031
v 3.986541 -0.791818 9.156858
v 1.009078 -1.259659 12.648634
v 1.010718 -1.259659 9.155461
v 4.677709 -1.259659 9.157183
v 4.676069 -1.259659 12.650355
v 2.842574 -1.259659 12.649495
v 2.844214 -1.259659 9.156322
v 3.745109 -1.259659 12.649919
v 3.746748 -1.259659 9.156746
v 3.295481 -1.259659 9.156534
v 3.293841 -1.259659 12.649707
v 4.210589 -1.259659 12.650137
v 4.212229 -1.259659 9.156964
v 3.068208 -1.259659 12.649601
v 3.069847 -1.259659 9.156427
v 3.984901 -1.259659 12.650031
v 3.986541 -1.259659 9.156858
v 1.010718 -1.353227 9.155461
v 4.677709 -1.353227 9.157183
v 4.676069 -1.353227 12.650355
v 2.842574 -1.353227 12.649495
v 2.844214 -1.353227 9.156322
v 3.745109 -1.353227 12.649919
v 3.746748 -1.353227 9.156746
v 3.295481 -1.353227 9.156534
v 3.293841 -1.353227 12.649707
v 4.210589 -1.353227 12.650137
v 4.212229 -1.353227 9.156964
v 3.068208 -1.353227 12.649601
v 3.069847 -1.353227 9.156427
v 3.984901 -1.353227 12.650031
v 3.986541 -1.353227 9.156858
v 1.009078 -1.353227 12.648634
vt 0.562500 0.000000
vt 0.625000 0.000000
vt 0.625000 0.250000
vt 0.562500 0.250000
vt 0.562500 0.468266
vt 0.625000 0.468266
vt 0.625000 0.500000
vt 0.562500 0.500000
vt 0.625000 0.750000
vt 0.562500 0.750000
vt 0.562500 0.875000
vt 0.625000 0.875000
vt 0.625000 1.000000
vt 0.562500 1.000000
vt 0.343266 0.500000
vt 0.375000 0.500000
vt 0.375000 0.750000
vt 0.343266 0.750000
vt 0.750000 0.500000
vt 0.875000 0.500000
vt 0.875000 0.750000
vt 0.750000 0.750000
vt 0.734617 0.500000
vt 0.734617 0.750000
vt 0.125000 0.500000
vt 0.250000 0.500000
vt 0.250000 0.750000
vt 0.125000 0.750000
vt 0.562500 0.859617
vt 0.625000 0.859617
vt 0.625000 0.375000
vt 0.562500 0.375000
vt 0.562500 0.797121
vt 0.625000 0.797121
vt 0.625000 0.813469
vt 0.562500 0.813469
vt 0.672121 0.500000
vt 0.688469 0.500000
vt 0.688469 0.750000
vt 0.672121 0.750000
vt 0.280766 0.500000
vt 0.311531 0.500000
vt 0.311531 0.750000
vt 0.280766 0.750000
vt 0.562500 0.405766
vt 0.625000 0.405766
vt 0.625000 0.436531
vt 0.562500 0.436531
vt 0.562500 0.390383
vt 0.625000 0.390383
vt 0.265383 0.500000
vt 0.265383 0.750000
vt 0.625000 0.844234
vt 0.562500 0.844234
vt 0.719234 0.500000
vt 0.719234 0.750000
vt 0.656734 0.500000
vt 0.656734 0.750000
vt 0.625000 0.781734
vt 0.562500 0.781734
vt 0.327879 0.500000
vt 0.327879 0.750000
vt 0.562500 0.452879
vt 0.625000 0.452879
vt 0.468750 0.452879
vt 0.500000 0.452879
vt 0.500000 0.468266
vt 0.468750 0.468266
vt 0.468750 0.750000
vt 0.500000 0.750000
vt 0.500000 0.781734
vt 0.468750 0.781734
vt 0.468750 0.813469
vt 0.500000 0.813469
vt 0.500000 0.844234
vt 0.468750 0.844234
vt 0.468750 0.390383
vt 0.500000 0.390383
vt 0.500000 0.405766
vt 0.468750 0.405766
vt 0.500000 0.436531
vt 0.468750 0.436531
vt 0.468750 0.797121
vt 0.500000 0.797121
vt 0.468750 0.250000
vt 0.500000 0.250000
vt 0.500000 0.375000
vt 0.468750 0.375000
vt 0.468750 0.859617
vt 0.500000 0.859617
vt 0.500000 0.875000
vt 0.468750 0.875000
vt 0.500000 1.000000
vt 0.468750 1.000000
vt 0.468750 0.500000
vt 0.500000 0.500000
vt 0.468750 0.000000
vt 0.500000 0.000000
vt 0.375000 0.000000
vt 0.437500 0.000000
vt 0.437500 0.250000
vt 0.375000 0.250000
vt 0.375000 0.468266
vt 0.437500 0.468266
vt 0.437500 0.500000
vt 0.437500 0.750000
vt 0.375000 0.875000
vt 0.437500 0.875000
vt 0.437500 1.000000
vt 0.375000 1.000000
vt 0.375000 0.859617
vt 0.437500 0.859617
vt 0.437500 0.375000
vt 0.375000 0.375000
vt 0.375000 0.797121
vt 0.437500 0.797121
vt 0.437500 0.813469
vt 0.375000 0.813469
vt 0.375000 0.405766
vt 0.437500 0.405766
vt 0.437500 0.436531
vt 0.375000 0.436531
vt 0.375000 0.390383
vt 0.437500 0.390383
vt 0.437500 0.844234
vt 0.375000 0.844234
vt 0.437500 0.781734
vt 0.375000 0.781734
vt 0.375000 0.452879
vt 0.437500 0.452879
vt 0.546875 0.452879
vt 0.546875 0.468266
vt 0.546875 0.750000
vt 0.546875 0.781734
vt 0.546875 0.813469
vt 0.546875 0.844234
vt 0.546875 0.390383
vt 0.546875 0.405766
vt 0.546875 0.436531
vt 0.546875 0.797121
vt 0.546875 0.250000
vt 0.546875 0.375000
vt 0.546875 0.859617
vt 0.546875 0.875000
vt 0.546875 1.000000
vt 0.546875 0.500000
vt 0.546875 0.000000
vt 0.531250 0.436531
vt 0.531250 0.452879
vt 0.531250 0.781734
vt 0.531250 0.797121
vt 0.531250 0.375000
vt 0.531250 0.390383
vt 0.531250 0.844234
vt 0.531250 0.859617
vt 0.531250 0.000000
vt 0.531250 0.250000
vt 0.531250 0.468266
vt 0.531250 0.500000
vt 0.531250 0.750000
vt 0.531250 0.875000
vt 0.531250 1.000000
vt 0.531250 0.813469
vt 0.531250 0.405766
vt 0.453125 0.436531
vt 0.453125 0.452879
vt 0.453125 0.781734
vt 0.453125 0.797121
vt 0.453125 0.375000
vt 0.453125 0.390383
vt 0.453125 0.844234
vt 0.453125 0.859617
vt 0.453125 0.000000
vt 0.453125 0.250000
vt 0.453125 0.468266
vt 0.453125 0.500000
vt 0.453125 0.750000
vt 0.453125 0.875000
vt 0.453125 1.000000
vt 0.453125 0.813469
vt 0.453125 0.405766
vn -1.0000 0.0000 -0.0005
vn 0.0005 0.0000 -1.0000
vn 1.0000 0.0000 0.0005
vn -0.0005 0.0000 1.0000
vn 0.0000 -1.0000 0.0000
vn 0.0000 1.0000 0.0000
s off
f 49/1/1 2/2/1 4/3/1 50/4/1
f 60/5/2 21/6/2 8/7/2 51/8/2
f 51/8/3 8/7/3 6/9/3 52/10/3
f 53/11/4 12/12/4 2/13/4 49/14/4
f 23/15/5 7/16/5 5/17/5 22/18/5
f 10/19/6 4/20/6 2/21/6 12/22/6
f 63/23/6 10/19/6 12/22/6 62/24/6
f 3/25/5 9/26/5 11/27/5 1/28/5
f 70/29/4 62/30/4 12/12/4 53/11/4
f 50/4/2 4/3/2 10/31/2 54/32/2
f 80/33/4 72/34/4 16/35/4 55/36/4
f 73/37/6 13/38/6 16/39/6 72/40/6
f 17/41/5 15/42/5 14/43/5 20/44/5
f 57/45/2 19/46/2 13/47/2 56/48/2
f 69/49/2 63/50/2 19/46/2 57/45/2
f 61/51/5 17/41/5 20/44/5 64/52/5
f 55/36/4 16/35/4 18/53/4 58/54/4
f 13/38/6 19/55/6 18/56/6 16/39/6
f 8/7/6 21/57/6 24/58/6 6/9/6
f 52/10/4 6/9/4 24/59/4 59/60/4
f 71/61/5 23/15/5 22/18/5 74/62/5
f 79/63/2 73/64/2 21/6/2 60/5/2
f 128/65/2 75/66/2 36/67/2 124/68/2
f 116/69/4 28/70/4 35/71/4 123/72/4
f 119/73/4 31/74/4 34/75/4 122/76/4
f 126/77/2 65/78/2 33/79/2 121/80/2
f 121/80/2 33/79/2 32/81/2 120/82/2
f 127/83/4 76/84/4 31/74/4 119/73/4
f 114/85/2 26/86/2 30/87/2 118/88/2
f 125/89/4 66/90/4 29/91/4 117/92/4
f 117/92/4 29/91/4 25/93/4 113/94/4
f 115/95/3 27/96/3 28/70/3 116/69/3
f 124/68/2 36/67/2 27/96/2 115/95/2
f 113/97/1 25/98/1 26/86/1 114/85/1
f 1/99/1 48/100/1 37/101/1 3/102/1
f 23/103/2 47/104/2 38/105/2 7/16/2
f 7/16/3 38/105/3 39/106/3 5/17/3
f 11/107/4 40/108/4 48/109/4 1/110/4
f 64/111/4 67/112/4 40/108/4 11/107/4
f 3/102/2 37/101/2 41/113/2 9/114/2
f 74/115/4 77/116/4 42/117/4 14/118/4
f 17/119/2 44/120/2 43/121/2 15/122/2
f 61/123/2 68/124/2 44/120/2 17/119/2
f 14/118/4 42/117/4 45/125/4 20/126/4
f 5/17/4 39/106/4 46/127/4 22/128/4
f 71/129/2 78/130/2 47/104/2 23/103/2
f 112/131/2 79/63/2 60/5/2 108/132/2
f 100/133/4 52/10/4 59/60/4 107/134/4
f 103/135/4 55/36/4 58/54/4 106/136/4
f 110/137/2 69/49/2 57/45/2 105/138/2
f 105/138/2 57/45/2 56/48/2 104/139/2
f 111/140/4 80/33/4 55/36/4 103/135/4
f 98/141/2 50/4/2 54/32/2 102/142/2
f 109/143/4 70/29/4 53/11/4 101/144/4
f 101/144/4 53/11/4 49/14/4 97/145/4
f 99/146/3 51/8/3 52/10/3 100/133/3
f 108/132/2 60/5/2 51/8/2 99/146/2
f 97/147/1 49/1/1 50/4/1 98/141/1
f 106/136/4 58/54/4 70/29/4 109/143/4
f 102/142/2 54/32/2 69/49/2 110/137/2
f 9/114/2 41/113/2 68/124/2 61/123/2
f 20/126/4 45/125/4 67/112/4 64/111/4
f 122/76/4 34/75/4 66/90/4 125/89/4
f 118/88/2 30/87/2 65/78/2 126/77/2
f 9/26/5 61/51/5 64/52/5 11/27/5
f 54/32/2 10/31/2 63/50/2 69/49/2
f 58/54/4 18/53/4 62/30/4 70/29/4
f 19/55/6 63/23/6 62/24/6 18/56/6
f 107/134/4 59/60/4 80/33/4 111/140/4
f 104/139/2 56/48/2 79/63/2 112/131/2
f 15/122/2 43/121/2 78/130/2 71/129/2
f 22/128/4 46/127/4 77/116/4 74/115/4
f 123/72/4 35/71/4 76/84/4 127/83/4
f 120/82/2 32/81/2 75/66/2 128/65/2
f 56/48/2 13/47/2 73/64/2 79/63/2
f 15/42/5 71/61/5 74/62/5 14/43/5
f 21/57/6 73/37/6 72/40/6 24/58/6
f 59/60/4 24/59/4 72/34/4 80/33/4
f 32/81/2 87/148/2 96/149/2 75/66/2
f 35/71/4 90/150/4 95/151/4 76/84/4
f 30/87/2 85/152/2 94/153/2 65/78/2
f 34/75/4 89/154/4 93/155/4 66/90/4
f 25/98/1 92/156/1 81/157/1 26/86/1
f 36/67/2 91/158/2 82/159/2 27/96/2
f 27/96/3 82/159/3 83/160/3 28/70/3
f 29/91/4 84/161/4 92/162/4 25/93/4
f 66/90/4 93/155/4 84/161/4 29/91/4
f 26/86/2 81/157/2 85/152/2 30/87/2
f 76/84/4 95/151/4 86/163/4 31/74/4
f 33/79/2 88/164/2 87/148/2 32/81/2
f 65/78/2 94/153/2 88/164/2 33/79/2
f 31/74/4 86/163/4 89/154/4 34/75/4
f 28/70/4 83/160/4 90/150/4 35/71/4
f 75/66/2 96/149/2 91/158/2 36/67/2
f 87/148/2 104/139/2 112/131/2 96/149/2
f 90/150/4 107/134/4 111/140/4 95/151/4
f 85/152/2 102/142/2 110/137/2 94/153/2
f 89/154/4 106/136/4 109/143/4 93/155/4
f 92/156/1 97/147/1 98/141/1 81/157/1
f 91/158/2 108/132/2 99/146/2 82/159/2
f 82/159/3 99/146/3 100/133/3 83/160/3
f 84/161/4 101/144/4 97/145/4 92/162/4
f 93/155/4 109/143/4 101/144/4 84/161/4
f 81/157/2 98/141/2 102/142/2 85/152/2
f 95/151/4 111/140/4 103/135/4 86/163/4
f 88/164/2 105/138/2 104/139/2 87/148/2
f 94/153/2 110/137/2 105/138/2 88/164/2
f 86/163/4 103/135/4 106/136/4 89/154/4
f 83/160/4 100/133/4 107/134/4 90/150/4
f 96/149/2 112/131/2 108/132/2 91/158/2
f 135/165/2 120/82/2 128/65/2 143/166/2
f 138/167/4 123/72/4 127/83/4 142/168/4
f 133/169/2 118/88/2 126/77/2 141/170/2
f 137/171/4 122/76/4 125/89/4 140/172/4
f 144/173/1 113/97/1 114/85/1 129/174/1
f 139/175/2 124/68/2 115/95/2 130/176/2
f 130/176/3 115/95/3 116/69/3 131/177/3
f 132/178/4 117/92/4 113/94/4 144/179/4
f 140/172/4 125/89/4 117/92/4 132/178/4
f 129/174/2 114/85/2 118/88/2 133/169/2
f 142/168/4 127/83/4 119/73/4 134/180/4
f 136/181/2 121/80/2 120/82/2 135/165/2
f 141/170/2 126/77/2 121/80/2 136/181/2
f 134/180/4 119/73/4 122/76/4 137/171/4
f 131/177/4 116/69/4 123/72/4 138/167/4
f 143/166/2 128/65/2 124/68/2 139/175/2
f 78/130/2 143/166/2 139/175/2 47/104/2
f 39/106/4 131/177/4 138/167/4 46/127/4
f 42/117/4 134/180/4 137/171/4 45/125/4
f 68/124/2 141/170/2 136/181/2 44/120/2
f 44/120/2 136/181/2 135/165/2 43/121/2
f 77/116/4 142/168/4 134/180/4 42/117/4
f 37/101/2 129/174/2 133/169/2 41/113/2
f 67/112/4 140/172/4 132/178/4 40/108/4
f 40/108/4 132/178/4 144/179/4 48/109/4
f 38/105/3 130/176/3 131/177/3 39/106/3
f 47/104/2 139/175/2 130/176/2 38/105/2
f 48/100/1 144/173/1 129/174/1 37/101/1
f 45/125/4 137/171/4 140/172/4 67/112/4
f 41/113/2 133/169/2 141/170/2 68/124/2
f 46/127/4 138/167/4 142/168/4 77/116/4
f 43/121/2 135/165/2 143/166/2 78/130/2
