# Blender v2.92.0 OBJ File: 'istana3_28256_autosave_21692_autosave.blend'
# www.blender.org
o Cube.009_Cube.010
v 3.020362 -1.090939 9.092701
v 3.020362 -0.482599 9.092701
v 3.020097 -1.090939 9.170423
v 3.020097 -0.482599 9.170423
v 3.483855 -1.090939 9.094283
v 3.483855 -0.482599 9.094283
v 3.483590 -1.090939 9.172005
v 3.483590 -0.482599 9.172005
v 3.251843 -1.090939 9.171214
v 3.251843 -0.482599 9.171214
v 3.252109 -1.090939 9.093492
v 3.252109 -0.482599 9.093492
v 3.367717 -0.482599 9.171609
v 3.367982 -1.090939 9.093887
v 3.367717 -1.090939 9.171609
v 3.367982 -0.482599 9.093887
v 3.135970 -1.090939 9.170818
v 3.136235 -0.482599 9.093097
v 3.135970 -0.482599 9.170818
v 3.136235 -1.090939 9.093097
v 3.078033 -1.090939 9.170621
v 3.078299 -0.482599 9.092898
v 3.078033 -0.482599 9.170621
v 3.078299 -1.090939 9.092898
v 3.425653 -0.482599 9.171807
v 3.425919 -1.090939 9.094085
v 3.425653 -1.090939 9.171807
v 3.425919 -0.482599 9.094085
v 3.020362 -0.786769 9.092701
v 3.020097 -0.786769 9.170423
v 3.483590 -0.786769 9.172005
v 3.483855 -0.786769 9.094283
v 3.425711 -1.014896 9.154854
v 3.251843 -0.786769 9.171214
v 3.078091 -1.014896 9.153667
v 3.367717 -0.786769 9.171609
v 3.135970 -0.786769 9.170818
v 3.136028 -1.014896 9.153865
v 3.078033 -0.786769 9.170621
v 3.367775 -1.014896 9.154656
v 3.251901 -1.014896 9.154261
v 3.425653 -0.786769 9.171807
v 3.020362 -0.634684 9.092701
v 3.020097 -0.634684 9.170423
v 3.483590 -0.634684 9.172005
v 3.483855 -0.634684 9.094283
v 3.425711 -0.938854 9.154854
v 3.251843 -0.634684 9.171214
v 3.078091 -0.938854 9.153667
v 3.367717 -0.634684 9.171609
v 3.135970 -0.634684 9.170818
v 3.136028 -0.938854 9.153865
v 3.078033 -0.634684 9.170621
v 3.367775 -0.938854 9.154656
v 3.251901 -0.938854 9.154261
v 3.425653 -0.634684 9.171807
v 3.020362 -0.558641 9.092701
v 3.020097 -0.558641 9.170423
v 3.483590 -0.558641 9.172005
v 3.483855 -0.558641 9.094283
v 3.425711 -0.558641 9.154854
v 3.251843 -0.558641 9.171214
v 3.078091 -0.558641 9.153667
v 3.367717 -0.558641 9.171609
v 3.135970 -0.558641 9.170818
v 3.136028 -0.558641 9.153865
v 3.078033 -0.558641 9.170621
v 3.367775 -0.558641 9.154656
v 3.251901 -0.558641 9.154261
v 3.425653 -0.558641 9.171807
v 3.020097 -0.938854 9.170423
v 3.483590 -0.938854 9.172005
v 3.483855 -0.938854 9.094283
v 3.425711 -0.786769 9.154854
v 3.251843 -0.938854 9.171214
v 3.425711 -0.634684 9.154854
v 3.367717 -0.938854 9.171609
v 3.135970 -0.938854 9.170818
v 3.078091 -0.786769 9.153667
v 3.078033 -0.938854 9.170621
v 3.078091 -0.634684 9.153667
v 3.136028 -0.786769 9.153865
v 3.425653 -0.938854 9.171807
v 3.020362 -0.938854 9.092701
v 3.020097 -1.014896 9.170423
v 3.483590 -1.014896 9.172005
v 3.483855 -1.014896 9.094283
v 3.136028 -0.634684 9.153865
v 3.251843 -1.014896 9.171214
v 3.367775 -0.786769 9.154656
v 3.367717 -1.014896 9.171609
v 3.135970 -1.014896 9.170818
v 3.367775 -0.634684 9.154656
v 3.078033 -1.014896 9.170621
v 3.251901 -0.786769 9.154261
v 3.251901 -0.634684 9.154261
v 3.425653 -1.014896 9.171807
v 3.020362 -1.014896 9.092701
v 3.049065 -1.090939 9.170522
v 3.049330 -0.482599 9.092800
v 3.049065 -0.482599 9.170522
v 3.049330 -1.090939 9.092800
v 3.049065 -0.786769 9.170522
v 3.049330 -0.786769 9.092800
v 3.049065 -0.634684 9.170522
v 3.049330 -0.634684 9.092800
v 3.049065 -0.558641 9.170522
v 3.049330 -0.558641 9.092800
v 3.049330 -0.938854 9.092800
v 3.049065 -0.938854 9.170522
v 3.049065 -1.014896 9.170522
v 3.049330 -1.014896 9.092800
v 3.454622 -0.482599 9.171906
v 3.454887 -1.090939 9.094184
v 3.454622 -1.090939 9.171906
v 3.454887 -0.482599 9.094184
v 3.454887 -0.786769 9.094184
v 3.454622 -0.786769 9.171906
v 3.454887 -0.634684 9.094184
v 3.454622 -0.634684 9.171906
v 3.454887 -0.558641 9.094184
v 3.454622 -0.558641 9.171906
v 3.454622 -0.938854 9.171906
v 3.454887 -0.938854 9.094184
v 3.454887 -1.014896 9.094184
v 3.454622 -1.014896 9.171906
v 3.020362 -0.520620 9.092701
v 3.020097 -0.520620 9.170423
v 3.483590 -0.520620 9.172005
v 3.483855 -0.520620 9.094283
v 3.252109 -0.520620 9.093492
v 3.251843 -0.520620 9.171214
v 3.367982 -0.520620 9.093887
v 3.367717 -0.520620 9.171609
v 3.135970 -0.520620 9.170818
v 3.136235 -0.520620 9.093097
v 3.078033 -0.520620 9.170621
v 3.078299 -0.520620 9.092898
v 3.425919 -0.520620 9.094085
v 3.425653 -0.520620 9.171807
v 3.049065 -0.520620 9.170522
v 3.049330 -0.520620 9.092800
v 3.454887 -0.520620 9.094184
v 3.454622 -0.520620 9.171906
v 3.020097 -1.058930 9.170423
v 3.483590 -1.058930 9.172005
v 3.483855 -1.058930 9.094283
v 3.252109 -1.058930 9.093492
v 3.251843 -1.058930 9.171214
v 3.367982 -1.058930 9.093887
v 3.367717 -1.058930 9.171609
v 3.135970 -1.058930 9.170818
v 3.136235 -1.058930 9.093097
v 3.078033 -1.058930 9.170621
v 3.078299 -1.058930 9.092898
v 3.425919 -1.058930 9.094085
v 3.425653 -1.058930 9.171807
v 3.020362 -1.058930 9.092701
v 3.049330 -1.058930 9.092800
v 3.049065 -1.058930 9.170522
v 3.454622 -1.058930 9.171906
v 3.454887 -1.058930 9.094184
v 3.078196 -0.634684 9.123037
v 3.078196 -0.786769 9.123037
v 3.425816 -0.634684 9.124225
v 3.425816 -0.786769 9.124225
v 3.454784 -0.786769 9.124323
v 3.252006 -0.558641 9.123631
v 3.367879 -0.558641 9.124026
v 3.136132 -0.558641 9.123236
v 3.078196 -0.558641 9.123037
v 3.425816 -0.558641 9.124225
v 3.454784 -0.634684 9.124323
v 3.252006 -0.520620 9.123631
v 3.367879 -0.520620 9.124026
v 3.136132 -0.520620 9.123236
v 3.078196 -0.520620 9.123037
v 3.425816 -0.520620 9.124225
v 3.454784 -0.558641 9.124323
v 3.078196 -0.938854 9.123037
v 3.425816 -0.938854 9.124225
v 3.454784 -0.938854 9.124323
v 3.252006 -1.014896 9.123631
v 3.367879 -1.014896 9.124026
v 3.136132 -1.014896 9.123236
v 3.078196 -1.014896 9.123037
v 3.425816 -1.014896 9.124225
v 3.454784 -1.014896 9.124323
v 3.049227 -0.786769 9.122939
v 3.049227 -0.634684 9.122939
v 3.049227 -0.558641 9.122939
v 3.049227 -0.938854 9.122939
v 3.049227 -1.014896 9.122939
v 3.049227 -0.520620 9.122939
v 3.454784 -0.520620 9.124323
v 3.252006 -1.058930 9.123631
v 3.367879 -1.058930 9.124026
v 3.136132 -1.058930 9.123236
v 3.078196 -1.058930 9.123037
v 3.425816 -1.058930 9.124225
v 3.049227 -1.058930 9.122939
v 3.454784 -1.058930 9.124323
vt 0.609375 0.000000
vt 0.609375 0.250000
vt 0.625000 0.250000
vt 0.625000 0.000000
vt 0.609375 0.484375
vt 0.609375 0.500000
vt 0.625000 0.500000
vt 0.625000 0.484375
vt 0.609375 0.750000
vt 0.625000 0.750000
vt 0.609375 0.984375
vt 0.609375 1.000000
vt 0.625000 1.000000
vt 0.625000 0.984375
vt 0.359375 0.500000
vt 0.359375 0.750000
vt 0.375000 0.750000
vt 0.375000 0.500000
vt 0.859375 0.500000
vt 0.859375 0.750000
vt 0.875000 0.750000
vt 0.875000 0.500000
vt 0.687500 0.500000
vt 0.687500 0.750000
vt 0.750000 0.750000
vt 0.750000 0.500000
vt 0.187500 0.500000
vt 0.187500 0.750000
vt 0.250000 0.750000
vt 0.250000 0.500000
vt 0.609375 0.812500
vt 0.609375 0.875000
vt 0.625000 0.875000
vt 0.625000 0.812500
vt 0.609375 0.312500
vt 0.609375 0.375000
vt 0.625000 0.375000
vt 0.625000 0.312500
vt 0.609375 0.781250
vt 0.625000 0.781250
vt 0.656250 0.500000
vt 0.656250 0.750000
vt 0.312500 0.750000
vt 0.312500 0.500000
vt 0.609375 0.437500
vt 0.625000 0.437500
vt 0.609375 0.281250
vt 0.625000 0.281250
vt 0.156250 0.500000
vt 0.156250 0.750000
vt 0.812500 0.750000
vt 0.812500 0.500000
vt 0.609375 0.937500
vt 0.625000 0.937500
vt 0.140625 0.500000
vt 0.140625 0.750000
vt 0.609375 0.265625
vt 0.625000 0.265625
vt 0.843750 0.750000
vt 0.843750 0.500000
vt 0.609375 0.968750
vt 0.625000 0.968750
vt 0.640625 0.500000
vt 0.640625 0.750000
vt 0.609375 0.765625
vt 0.625000 0.765625
vt 0.343750 0.750000
vt 0.343750 0.500000
vt 0.609375 0.468750
vt 0.625000 0.468750
vt 0.437500 0.437500
vt 0.437500 0.468750
vt 0.500000 0.468750
vt 0.500000 0.437500
vt 0.562500 0.812500
vt 0.562500 0.875000
vt 0.593750 0.875000
vt 0.593750 0.812500
vt 0.562500 0.781250
vt 0.593750 0.781250
vt 0.437500 0.265625
vt 0.437500 0.281250
vt 0.500000 0.281250
vt 0.500000 0.265625
vt 0.562500 0.937500
vt 0.593750 0.937500
vt 0.437500 0.312500
vt 0.500000 0.312500
vt 0.437500 0.375000
vt 0.500000 0.375000
vt 0.562500 0.968750
vt 0.593750 0.968750
vt 0.500000 0.812500
vt 0.500000 0.875000
vt 0.437500 0.984375
vt 0.437500 1.000000
vt 0.500000 1.000000
vt 0.500000 0.984375
vt 0.437500 0.500000
vt 0.437500 0.750000
vt 0.500000 0.750000
vt 0.500000 0.500000
vt 0.437500 0.484375
vt 0.500000 0.484375
vt 0.437500 0.000000
vt 0.437500 0.250000
vt 0.500000 0.250000
vt 0.500000 0.000000
vt 0.562500 0.468750
vt 0.562500 0.437500
vt 0.500000 0.781250
vt 0.500000 0.937500
vt 0.562500 0.281250
vt 0.562500 0.265625
vt 0.500000 0.968750
vt 0.562500 0.312500
vt 0.562500 0.375000
vt 0.437500 0.812500
vt 0.437500 0.875000
vt 0.437500 0.781250
vt 0.562500 1.000000
vt 0.562500 0.984375
vt 0.562500 0.750000
vt 0.562500 0.500000
vt 0.562500 0.484375
vt 0.562500 0.250000
vt 0.562500 0.000000
vt 0.593750 0.468750
vt 0.593750 0.437500
vt 0.437500 0.937500
vt 0.437500 0.968750
vt 0.593750 0.281250
vt 0.593750 0.265625
vt 0.609375 0.937500
vt 0.609375 0.968750
vt 0.593750 0.312500
vt 0.593750 0.375000
vt 0.609375 0.812500
vt 0.609375 0.875000
vt 0.388154 0.765625
vt 0.388154 0.765625
vt 0.406250 0.765625
vt 0.406250 0.765625
vt 0.593750 1.000000
vt 0.593750 0.984375
vt 0.593750 0.750000
vt 0.593750 0.500000
vt 0.593750 0.484375
vt 0.593750 0.250000
vt 0.593750 0.000000
vt 0.406250 0.000000
vt 0.406250 0.250000
vt 0.406250 0.484375
vt 0.406250 0.500000
vt 0.406250 0.750000
vt 0.406250 0.984375
vt 0.406250 1.000000
vt 0.562500 0.984375
vt 0.500000 0.984375
vt 0.406250 0.312500
vt 0.406250 0.375000
vt 0.609375 0.765625
vt 0.609375 0.781250
vt 0.406250 0.437500
vt 0.406250 0.281250
vt 0.609375 0.984375
vt 0.593750 0.984375
vt 0.406250 0.265625
vt 0.500000 0.765625
vt 0.500000 0.765625
vt 0.562500 0.765625
vt 0.562500 0.765625
vt 0.388154 0.937500
vt 0.388154 0.937500
vt 0.388154 0.875000
vt 0.388154 0.875000
vt 0.406250 0.468750
vt 0.388154 0.437500
vt 0.388154 0.468750
vt 0.388154 0.265625
vt 0.388154 0.281250
vt 0.593750 0.765625
vt 0.593750 0.765625
vt 0.388154 0.312500
vt 0.388154 0.375000
vt 0.406250 0.984375
vt 0.388154 0.984375
vt 0.388154 0.984375
vt 0.437500 0.984375
vt 0.388154 1.000000
vt 0.388154 0.500000
vt 0.388154 0.750000
vt 0.388154 0.484375
vt 0.388154 0.000000
vt 0.388154 0.250000
vt 0.388154 0.968750
vt 0.388154 0.968750
vt 0.388154 0.812500
vt 0.388154 0.812500
vt 0.388154 0.781250
vt 0.388154 0.781250
vt 0.125000 0.500000
vt 0.125000 0.750000
vt 0.437500 0.765625
vt 0.437500 0.765625
vt 0.375000 0.765625
vt 0.375000 0.468750
vt 0.375000 0.484375
vt 0.375000 0.250000
vt 0.375000 0.265625
vt 0.375000 0.968750
vt 0.375000 0.984375
vt 0.375000 0.000000
vt 0.375000 1.000000
vt 0.375000 0.812500
vt 0.375000 0.875000
vt 0.375000 0.312500
vt 0.375000 0.375000
vt 0.375000 0.781250
vt 0.375000 0.437500
vt 0.375000 0.281250
vt 0.375000 0.937500
vt 0.437500 0.781250
vt 0.500000 0.781250
vt 0.562500 0.781250
vt 0.593750 0.937500
vt 0.593750 0.968750
vt 0.406250 0.812500
vt 0.406250 0.812500
vt 0.406250 0.781250
vt 0.406250 0.781250
vt 0.500000 0.968750
vt 0.437500 0.968750
vt 0.562500 0.968750
vt 0.406250 0.937500
vt 0.406250 0.937500
vt 0.406250 0.875000
vt 0.406250 0.875000
vt 0.406250 0.968750
vt 0.406250 0.968750
vt 0.593750 0.781250
vt 0.593750 0.812500
vt 0.593750 0.875000
vn -1.0000 0.0000 -0.0034
vn -0.0034 0.0000 1.0000
vn 1.0000 0.0000 0.0034
vn 0.0034 0.0000 -1.0000
vn 0.0000 -1.0000 0.0000
vn 0.0000 1.0000 0.0000
s off
f 127/1/1 128/2/1 4/3/1 2/4/1
f 144/5/2 129/6/2 8/7/2 113/8/2
f 129/6/3 130/9/3 6/10/3 8/7/3
f 142/11/4 127/12/4 2/13/4 100/14/4
f 115/15/5 114/16/5 5/17/5 7/18/5
f 101/19/6 100/20/6 2/21/6 4/22/6
f 13/23/6 16/24/6 12/25/6 10/26/6
f 17/27/5 20/28/5 11/29/5 9/30/5
f 133/31/4 131/32/4 12/33/4 16/34/4
f 135/35/2 132/36/2 10/37/2 19/38/2
f 139/39/4 133/31/4 16/34/4 28/40/4
f 25/41/6 28/42/6 16/24/6 13/23/6
f 9/30/5 11/29/5 14/43/5 15/44/5
f 132/36/2 134/45/2 13/46/2 10/37/2
f 137/47/2 135/35/2 19/38/2 23/48/2
f 21/49/5 24/50/5 20/28/5 17/27/5
f 10/26/6 12/25/6 18/51/6 19/52/6
f 131/32/4 136/53/4 18/54/4 12/33/4
f 99/55/5 102/56/5 24/50/5 21/49/5
f 141/57/2 137/47/2 23/48/2 101/58/2
f 19/52/6 18/51/6 22/59/6 23/60/6
f 136/53/4 138/61/4 22/62/4 18/54/4
f 113/63/6 116/64/6 28/42/6 25/41/6
f 143/65/4 139/39/4 28/40/4 116/66/4
f 15/44/5 14/43/5 26/67/5 27/68/5
f 134/45/2 140/69/2 25/70/2 13/46/2
f 77/71/2 83/72/2 42/73/2 36/74/2
f 93/75/4 96/76/4 69/77/4 68/78/4
f 76/79/4 93/75/4 68/78/4 61/80/4
f 110/81/2 80/82/2 39/83/2 103/84/2
f 96/76/4 88/85/4 66/86/4 69/77/4
f 80/82/2 78/87/2 37/88/2 39/83/2
f 75/89/2 77/71/2 36/74/2 34/90/2
f 88/85/4 81/91/4 63/92/4 66/86/4
f 78/87/2 75/89/2 34/90/2 37/88/2
f 90/93/4 95/94/4 96/76/4 93/75/4
f 109/95/4 84/96/4 29/97/4 104/98/4
f 72/99/3 73/100/3 32/101/3 31/102/3
f 123/103/2 72/99/2 31/102/2 118/104/2
f 84/105/1 71/106/1 30/107/1 29/108/1
f 36/74/2 42/73/2 56/109/2 50/110/2
f 74/111/4 90/93/4 93/75/4 76/79/4
f 95/94/4 82/112/4 88/85/4 96/76/4
f 103/84/2 39/83/2 53/113/2 105/114/2
f 82/112/4 79/115/4 81/91/4 88/85/4
f 39/83/2 37/88/2 51/116/2 53/113/2
f 34/90/2 36/74/2 50/110/2 48/117/2
f 54/118/4 55/119/4 95/94/4 90/93/4
f 37/88/2 34/90/2 48/117/2 51/116/2
f 47/120/4 54/118/4 90/93/4 74/111/4
f 104/98/4 29/97/4 43/121/4 106/122/4
f 31/102/3 32/101/3 46/123/3 45/124/3
f 118/104/2 31/102/2 45/124/2 120/125/2
f 29/108/1 30/107/1 44/126/1 43/127/1
f 50/110/2 56/109/2 70/128/2 64/129/2
f 55/119/4 52/130/4 82/112/4 95/94/4
f 52/130/4 49/131/4 79/115/4 82/112/4
f 105/114/2 53/113/2 67/132/2 107/133/2
f 136/53/5 176/134/5 177/135/5 138/61/5
f 53/113/2 51/116/2 65/136/2 67/132/2
f 48/117/2 50/110/2 64/129/2 62/137/2
f 133/31/5 175/138/5 174/139/5 131/32/5
f 51/116/2 48/117/2 62/137/2 65/136/2
f 162/140/1 202/141/1 188/142/1 125/143/1
f 106/122/4 43/121/4 57/144/4 108/145/4
f 45/124/3 46/123/3 60/146/3 59/147/3
f 120/125/2 45/124/2 59/147/2 122/148/2
f 43/127/1 44/126/1 58/149/1 57/150/1
f 98/151/1 85/152/1 71/106/1 84/105/1
f 126/153/2 86/154/2 72/99/2 123/103/2
f 86/154/3 87/155/3 73/100/3 72/99/3
f 112/156/4 98/157/4 84/96/4 109/95/4
f 106/122/3 190/158/3 189/159/3 104/98/3
f 92/160/2 89/161/2 75/89/2 78/87/2
f 143/65/5 195/162/5 178/163/5 139/39/5
f 89/161/2 91/164/2 77/71/2 75/89/2
f 94/165/2 92/160/2 78/87/2 80/82/2
f 142/11/3 194/166/3 191/167/3 108/145/3
f 111/168/2 94/165/2 80/82/2 110/81/2
f 117/169/1 167/170/1 173/171/1 119/172/1
f 153/173/6 198/174/6 196/175/6 148/176/6
f 91/164/2 97/177/2 83/72/2 77/71/2
f 151/178/2 157/179/2 97/177/2 91/164/2
f 139/39/5 178/163/5 175/138/5 133/31/5
f 108/145/3 191/167/3 190/158/3 106/122/3
f 160/180/2 154/181/2 94/165/2 111/168/2
f 119/172/1 173/171/1 179/182/1 121/183/1
f 154/181/2 152/184/2 92/160/2 94/165/2
f 149/185/2 151/178/2 91/164/2 89/161/2
f 112/156/3 193/186/3 201/187/3 159/188/3
f 152/184/2 149/185/2 89/161/2 92/160/2
f 109/95/3 192/189/3 193/186/3 112/156/3
f 159/188/4 158/190/4 98/157/4 112/156/4
f 146/191/3 147/192/3 87/155/3 86/154/3
f 161/193/2 146/191/2 86/154/2 126/153/2
f 158/194/1 145/195/1 85/152/1 98/151/1
f 138/61/5 177/135/5 194/166/5 142/11/5
f 145/195/2 160/180/2 111/168/2 85/152/2
f 85/152/2 111/168/2 110/81/2 71/106/2
f 159/188/6 201/187/6 199/196/6 155/197/6
f 150/198/6 197/199/6 200/200/6 156/201/6
f 44/126/2 105/114/2 107/133/2 58/149/2
f 131/32/5 174/139/5 176/134/5 136/53/5
f 30/107/2 103/84/2 105/114/2 44/126/2
f 121/183/1 179/182/1 195/162/1 143/65/1
f 71/106/2 110/81/2 103/84/2 30/107/2
f 128/2/2 141/57/2 101/58/2 4/3/2
f 3/202/5 1/203/5 102/56/5 99/55/5
f 23/60/6 22/59/6 100/20/6 101/19/6
f 138/61/4 142/11/4 100/14/4 22/62/4
f 157/179/2 161/193/2 126/153/2 97/177/2
f 147/192/4 162/140/4 125/143/4 87/155/4
f 87/155/4 125/143/4 124/204/4 73/100/4
f 97/177/2 126/153/2 123/103/2 83/72/2
f 56/109/2 120/125/2 122/148/2 70/128/2
f 46/123/4 119/172/4 121/183/4 60/146/4
f 42/73/2 118/104/2 120/125/2 56/109/2
f 32/101/4 117/169/4 119/172/4 46/123/4
f 83/72/2 123/103/2 118/104/2 42/73/2
f 73/100/4 124/204/4 117/169/4 32/101/4
f 130/9/4 143/65/4 116/66/4 6/10/4
f 8/7/6 6/10/6 116/64/6 113/63/6
f 27/68/5 26/67/5 114/16/5 115/15/5
f 140/69/2 144/5/2 113/8/2 25/70/2
f 70/128/2 122/148/2 144/5/2 140/69/2
f 60/146/4 121/183/4 143/65/4 130/9/4
f 156/201/6 200/200/6 202/141/6 162/140/6
f 58/149/2 107/133/2 141/57/2 128/2/2
f 64/129/2 70/128/2 140/69/2 134/45/2
f 104/98/3 189/159/3 192/189/3 109/95/3
f 125/143/1 188/142/1 182/205/1 124/204/1
f 107/133/2 67/132/2 137/47/2 141/57/2
f 148/176/6 196/175/6 197/199/6 150/198/6
f 67/132/2 65/136/2 135/35/2 137/47/2
f 62/137/2 64/129/2 134/45/2 132/36/2
f 124/204/1 182/205/1 167/170/1 117/169/1
f 65/136/2 62/137/2 132/36/2 135/35/2
f 155/197/6 199/196/6 198/174/6 153/173/6
f 108/145/4 57/144/4 127/12/4 142/11/4
f 59/147/3 60/146/3 130/9/3 129/6/3
f 122/148/2 59/147/2 129/6/2 144/5/2
f 57/150/1 58/149/1 128/2/1 127/1/1
f 5/17/4 114/206/4 162/140/4 147/192/4
f 27/207/2 115/208/2 161/193/2 157/179/2
f 3/209/2 99/210/2 160/180/2 145/195/2
f 24/211/4 102/212/4 159/188/4 155/197/4
f 1/213/1 3/209/1 145/195/1 158/194/1
f 115/208/2 7/18/2 146/191/2 161/193/2
f 7/18/3 5/17/3 147/192/3 146/191/3
f 102/212/4 1/214/4 158/190/4 159/188/4
f 14/215/4 11/216/4 148/176/4 150/198/4
f 17/217/2 9/218/2 149/185/2 152/184/2
f 26/219/4 14/215/4 150/198/4 156/201/4
f 9/218/2 15/220/2 151/178/2 149/185/2
f 21/221/2 17/217/2 152/184/2 154/181/2
f 11/216/4 20/222/4 153/173/4 148/176/4
f 99/210/2 21/221/2 154/181/2 160/180/2
f 20/222/4 24/211/4 155/197/4 153/173/4
f 114/206/4 26/219/4 156/201/4 162/140/4
f 15/220/2 27/207/2 157/179/2 151/178/2
f 182/205/4 181/223/4 166/224/4 167/170/4
f 166/224/1 74/111/1 76/79/1 165/225/1
f 170/226/5 66/86/5 63/92/5 171/227/5
f 184/228/6 40/229/6 33/230/6 187/231/6
f 164/232/3 79/115/3 49/131/3 180/233/3
f 167/170/4 166/224/4 165/225/4 173/171/4
f 163/234/3 81/91/3 79/115/3 164/232/3
f 185/235/6 38/236/6 41/237/6 183/238/6
f 186/239/6 35/240/6 38/236/6 185/235/6
f 187/231/1 33/230/1 47/120/1 181/223/1
f 173/171/4 165/225/4 172/241/4 179/182/4
f 169/242/5 68/78/5 69/77/5 168/243/5
f 165/225/1 76/79/1 61/80/1 172/241/1
f 180/233/3 49/131/3 35/240/3 186/239/3
f 172/241/5 61/80/5 68/78/5 169/242/5
f 171/227/3 63/92/3 81/91/3 163/234/3
f 168/243/5 69/77/5 66/86/5 170/226/5
f 183/238/6 41/237/6 40/229/6 184/228/6
f 181/223/1 47/120/1 74/111/1 166/224/1
f 188/142/4 187/231/4 181/223/4 182/205/4
f 202/141/4 200/200/4 187/231/4 188/142/4
f 198/174/4 199/196/4 186/239/4 185/235/4
f 196/175/4 198/174/4 185/235/4 183/238/4
f 200/200/4 197/199/4 184/228/4 187/231/4
f 197/199/4 196/175/4 183/238/4 184/228/4
f 199/196/4 201/187/4 193/186/4 186/239/4
f 186/239/4 193/186/4 192/189/4 180/233/4
f 163/234/4 190/158/4 191/167/4 171/227/4
f 164/232/4 189/159/4 190/158/4 163/234/4
f 180/233/4 192/189/4 189/159/4 164/232/4
f 171/227/4 191/167/4 194/166/4 177/135/4
f 179/182/4 172/241/4 178/163/4 195/162/4
f 170/226/4 171/227/4 177/135/4 176/134/4
f 168/243/4 170/226/4 176/134/4 174/139/4
f 172/241/4 169/242/4 175/138/4 178/163/4
f 169/242/4 168/243/4 174/139/4 175/138/4
f 40/229/4 41/237/4 55/119/4 54/118/4
f 33/230/4 40/229/4 54/118/4 47/120/4
f 41/237/4 38/236/4 52/130/4 55/119/4
f 38/236/4 35/240/4 49/131/4 52/130/4
