# Blender v2.92.0 OBJ File: 'untitled.blend'
# www.blender.org
mtllib jendelaRumahJenn.mtl
o Cube.004_Cube.005
v -11.111551 -1.449790 2.985706
v -11.111551 -0.831744 2.985706
v -11.111551 -1.449790 2.946342
v -11.111551 -0.831744 2.946342
v -10.512094 -1.449790 2.985706
v -10.512094 -0.831744 2.985706
v -10.512094 -1.449790 2.946342
v -10.512094 -0.831744 2.946342
v -11.111551 -1.140767 2.985706
v -11.111551 -1.140767 2.946342
v -10.512094 -1.140767 2.946342
v -10.512094 -1.140767 2.985706
v -10.806229 -1.449790 2.946342
v -10.806229 -0.831744 2.946342
v -10.806229 -1.449790 2.985706
v -10.806229 -0.831744 2.985706
v -10.806229 -1.140767 2.946342
v -11.077334 -1.449790 2.946342
v -11.077334 -0.831744 2.985706
v -11.077334 -1.140767 2.985706
v -11.077334 -0.831744 2.946342
v -11.077334 -1.449790 2.985706
v -11.077334 -1.140767 2.946342
v -11.111551 -0.870606 2.985706
v -11.111551 -0.870606 2.946342
v -10.512094 -0.870606 2.946342
v -10.512094 -0.870606 2.985706
v -10.806229 -0.870606 2.985706
v -10.806229 -0.870606 2.946342
v -11.077334 -0.870606 2.946342
v -11.077334 -0.870606 2.985706
v -10.542607 -0.831744 2.946342
v -10.542607 -1.449790 2.985706
v -10.542607 -1.140767 2.946342
v -10.542607 -1.449790 2.946342
v -10.542607 -0.831744 2.985706
v -10.542607 -1.140767 2.985706
v -10.542607 -0.870606 2.985706
v -10.542607 -0.870606 2.946342
v -11.111551 -1.413690 2.946342
v -10.512094 -1.413690 2.946342
v -10.512094 -1.413690 2.985706
v -11.111551 -1.413690 2.985706
v -10.806229 -1.413690 2.946342
v -10.806229 -1.413690 2.985706
v -11.077334 -1.413690 2.946342
v -11.077334 -1.413690 2.985706
v -10.542607 -1.413690 2.985706
v -10.542607 -1.413690 2.946342
v -10.542607 -1.140767 2.965113
v -10.806229 -1.140767 2.965113
v -10.806229 -0.870606 2.965113
v -11.077334 -1.140767 2.965113
v -11.077334 -0.870606 2.965113
v -10.542607 -0.870606 2.965113
v -10.806229 -1.413690 2.965113
v -11.077334 -1.413690 2.965113
v -10.542607 -1.413690 2.965113
vt 0.609280 0.000000
vt 0.625000 0.000000
vt 0.625000 0.250000
vt 0.609280 0.250000
vt 0.609280 0.487275
vt 0.625000 0.487275
vt 0.625000 0.500000
vt 0.609280 0.500000
vt 0.625000 0.750000
vt 0.609280 0.750000
vt 0.609280 0.985730
vt 0.625000 0.985730
vt 0.625000 1.000000
vt 0.609280 1.000000
vt 0.362275 0.500000
vt 0.375000 0.500000
vt 0.375000 0.750000
vt 0.362275 0.750000
vt 0.860730 0.500000
vt 0.875000 0.500000
vt 0.875000 0.750000
vt 0.860730 0.750000
vt 0.389603 0.985730
vt 0.500000 0.985730
vt 0.500000 1.000000
vt 0.389603 1.000000
vt 0.389603 0.500000
vt 0.500000 0.500000
vt 0.500000 0.750000
vt 0.389603 0.750000
vt 0.389603 0.487275
vt 0.500000 0.487275
vt 0.389603 0.000000
vt 0.500000 0.000000
vt 0.500000 0.250000
vt 0.389603 0.250000
vt 0.389603 0.264270
vt 0.500000 0.264270
vt 0.500000 0.377333
vt 0.389603 0.377333
vt 0.389603 0.985730
vt 0.500000 0.985730
vt 0.637725 0.500000
vt 0.747667 0.500000
vt 0.747667 0.750000
vt 0.637725 0.750000
vt 0.139270 0.500000
vt 0.252333 0.500000
vt 0.252333 0.750000
vt 0.139270 0.750000
vt 0.609280 0.762725
vt 0.625000 0.762725
vt 0.625000 0.872667
vt 0.609280 0.872667
vt 0.609280 0.264270
vt 0.625000 0.264270
vt 0.625000 0.377333
vt 0.609280 0.377333
vt 0.125000 0.500000
vt 0.125000 0.750000
vt 0.609280 0.985730
vt 0.609280 0.872667
vt 0.500000 0.762725
vt 0.609280 0.762725
vt 0.500000 0.762725
vt 0.389603 0.762725
vt 0.375000 0.377333
vt 0.375000 0.487275
vt 0.375000 0.762725
vt 0.375000 0.872667
vt 0.389603 0.872667
vt 0.375000 0.985730
vt 0.375000 0.250000
vt 0.375000 0.264270
vt 0.375000 0.000000
vt 0.375000 1.000000
vt 0.389603 0.762725
vt 0.500000 0.872667
vt 0.389603 0.872667
vn -1.0000 0.0000 0.0000
vn 0.0000 0.0000 -1.0000
vn 1.0000 0.0000 0.0000
vn 0.0000 0.0000 1.0000
vn 0.0000 -1.0000 0.0000
vn 0.0000 1.0000 0.0000
usemtl None
s off
f 24/1/1 2/2/1 4/3/1 25/4/1
f 39/5/2 32/6/2 8/7/2 26/8/2
f 26/8/3 8/7/3 6/9/3 27/10/3
f 31/11/4 19/12/4 2/13/4 24/14/4
f 35/15/5 7/16/5 5/17/5 33/18/5
f 21/19/6 4/20/6 2/21/6 19/22/6
f 47/23/4 20/24/4 9/25/4 43/26/4
f 41/27/3 11/28/3 12/29/3 42/30/3
f 49/31/2 34/32/2 11/28/2 41/27/2
f 43/33/1 9/34/1 10/35/1 40/36/1
f 46/37/2 23/38/2 17/39/2 44/40/2
f 20/24/3 47/23/3 57/41/3 53/42/3
f 32/43/6 14/44/6 16/45/6 36/46/6
f 18/47/5 13/48/5 15/49/5 22/50/5
f 38/51/4 36/52/4 16/53/4 28/54/4
f 30/55/2 21/56/2 14/57/2 29/58/2
f 25/4/2 4/3/2 21/56/2 30/55/2
f 3/59/5 18/47/5 22/50/5 1/60/5
f 40/36/2 10/35/2 23/38/2 46/37/2
f 28/54/5 31/11/5 54/61/5 52/62/5
f 14/44/6 21/19/6 19/22/6 16/45/6
f 28/54/4 16/53/4 19/12/4 31/11/4
f 31/11/3 20/24/3 53/42/3 54/61/3
f 10/35/2 25/4/2 30/55/2 23/38/2
f 23/38/2 30/55/2 29/58/2 17/39/2
f 37/63/1 38/51/1 55/64/1 50/65/1
f 20/24/4 31/11/4 24/14/4 9/25/4
f 11/28/3 26/8/3 27/10/3 12/29/3
f 34/32/2 39/5/2 26/8/2 11/28/2
f 9/34/1 24/1/1 25/4/1 10/35/1
f 17/39/2 29/58/2 39/5/2 34/32/2
f 12/29/4 27/10/4 38/51/4 37/63/4
f 27/10/4 6/9/4 36/52/4 38/51/4
f 8/7/6 32/43/6 36/46/6 6/9/6
f 42/30/4 12/29/4 37/63/4 48/66/4
f 44/40/2 17/39/2 34/32/2 49/31/2
f 13/48/5 35/15/5 33/18/5 15/49/5
f 29/58/2 14/57/2 32/6/2 39/5/2
f 13/67/2 44/40/2 49/31/2 35/68/2
f 5/17/4 42/30/4 48/66/4 33/69/4
f 15/70/4 45/71/4 47/23/4 22/72/4
f 3/73/2 40/36/2 46/37/2 18/74/2
f 33/69/4 48/66/4 45/71/4 15/70/4
f 18/74/2 46/37/2 44/40/2 13/67/2
f 1/75/1 43/33/1 40/36/1 3/73/1
f 35/68/2 49/31/2 41/27/2 7/16/2
f 7/16/3 41/27/3 42/30/3 5/17/3
f 22/72/4 47/23/4 43/26/4 1/76/4
f 58/77/4 50/65/4 51/78/4 56/79/4
f 56/79/4 51/78/4 53/42/4 57/41/4
f 51/78/4 52/62/4 54/61/4 53/42/4
f 50/65/4 55/64/4 52/62/4 51/78/4
f 45/71/6 48/66/6 58/77/6 56/79/6
f 47/23/6 45/71/6 56/79/6 57/41/6
f 38/51/5 28/54/5 52/62/5 55/64/5
f 48/66/1 37/63/1 50/65/1 58/77/1
