# Blender v2.92.0 OBJ File: 'untitled.blend'
# www.blender.org
mtllib rumahJenn.mtl
o Cube_Cube.003
v -11.713930 -2.021393 1.184984
v -11.713930 -0.267066 1.184984
v -11.713930 -2.021393 -2.163493
v -11.713930 -0.267066 -2.163493
v -6.632589 -2.021393 1.184984
v -6.632589 -0.267066 1.184984
v -6.632589 -2.021393 -2.163493
v -6.632589 -0.267066 -2.163493
v -9.935461 -2.021393 -2.163493
v -9.935461 -0.267066 -2.163493
v -9.935461 -2.021393 1.184984
v -9.935461 -0.267066 1.184984
v -11.713930 -2.021393 2.938859
v -11.713930 -0.267066 2.938859
v -9.935461 -0.267066 2.938859
v -9.935461 -2.021393 2.938859
vt 0.375000 0.000000
vt 0.625000 0.000000
vt 0.625000 0.250000
vt 0.375000 0.250000
vt 0.375000 0.337500
vt 0.625000 0.337500
vt 0.625000 0.500000
vt 0.375000 0.500000
vt 0.625000 0.750000
vt 0.375000 0.750000
vt 0.787500 0.750000
vt 0.875000 0.750000
vt 0.875000 0.750000
vt 0.787500 0.750000
vt 0.212500 0.500000
vt 0.212500 0.750000
vt 0.787500 0.500000
vt 0.875000 0.500000
vt 0.125000 0.500000
vt 0.125000 0.750000
vt 0.625000 0.912500
vt 0.375000 0.912500
vt 0.375000 0.912500
vt 0.625000 0.912500
vt 0.625000 1.000000
vt 0.375000 1.000000
vt 0.212500 0.750000
vt 0.125000 0.750000
vt 0.375000 0.000000
vt 0.625000 0.000000
vn -1.0000 0.0000 0.0000
vn 0.0000 0.0000 -1.0000
vn 1.0000 0.0000 0.0000
vn 0.0000 1.0000 0.0000
vn 0.0000 -1.0000 0.0000
vn 0.0000 0.0000 1.0000
usemtl None
s off
f 1/1/1 2/2/1 4/3/1 3/4/1
f 9/5/2 10/6/2 8/7/2 7/8/2
f 7/8/3 8/7/3 6/9/3 5/10/3
f 12/11/4 2/12/4 14/13/4 15/14/4
f 9/15/5 7/8/5 5/10/5 11/16/5
f 10/17/4 4/18/4 2/12/4 12/11/4
f 8/7/4 10/17/4 12/11/4 6/9/4
f 3/19/5 9/15/5 11/16/5 1/20/5
f 5/10/6 6/9/6 12/21/6 11/22/6
f 3/4/2 4/3/2 10/6/2 9/5/2
f 16/23/6 15/24/6 14/25/6 13/26/6
f 11/22/3 12/21/3 15/24/3 16/23/3
f 1/20/5 11/16/5 16/27/5 13/28/5
f 2/2/1 1/1/1 13/29/1 14/30/1
