# Blender v2.92.0 OBJ File: 'istana3_28256_autosave_21692_autosave.blend'
# www.blender.org
o Cube.013_Cube.044
v -9.812625 0.479232 10.378512
v -9.812625 0.499149 10.378512
v -9.170280 0.479232 10.360397
v -9.170280 0.499149 10.360397
v -9.788851 0.479232 11.221546
v -9.788851 0.499149 11.221546
v -9.146506 0.479232 11.203431
v -9.146506 0.499149 11.203431
v -9.491452 0.731944 10.369455
v -9.491452 0.751860 10.369455
v -9.467679 0.731944 11.212488
v -9.467679 0.751860 11.212488
vt 0.375000 0.125000
vt 0.625000 0.125000
vt 0.625000 0.250000
vt 0.375000 0.250000
vt 0.625000 0.500000
vt 0.375000 0.500000
vt 0.375000 0.625000
vt 0.625000 0.625000
vt 0.625000 0.750000
vt 0.375000 0.750000
vt 0.625000 1.000000
vt 0.375000 1.000000
vt 0.125000 0.625000
vt 0.125000 0.750000
vt 0.875000 0.625000
vt 0.875000 0.750000
vt 0.875000 0.500000
vt 0.125000 0.500000
vt 0.375000 0.000000
vt 0.625000 0.000000
vn -0.0282 0.0000 -0.9996
vn 0.9996 0.0000 -0.0282
vn 0.0282 0.0000 0.9996
vn -0.9996 0.0000 0.0282
vn 0.6180 -0.7860 -0.0174
vn -0.6180 0.7860 0.0174
vn 0.6180 0.7860 -0.0174
vn -0.6180 -0.7860 0.0174
s off
f 9/1/1 10/2/1 4/3/1 3/4/1
f 3/4/2 4/3/2 8/5/2 7/6/2
f 11/7/3 12/8/3 6/9/3 5/10/3
f 5/10/4 6/9/4 2/11/4 1/12/4
f 9/13/5 11/7/5 5/10/5 1/14/5
f 12/8/6 10/15/6 2/16/6 6/9/6
f 8/5/7 4/17/7 10/15/7 12/8/7
f 3/18/8 7/6/8 11/7/8 9/13/8
f 7/6/3 8/5/3 12/8/3 11/7/3
f 1/19/1 2/20/1 10/2/1 9/1/1
