# Blender v2.92.0 OBJ File: 'istana3_28256_autosave_21692_autosave.blend'
# www.blender.org
o Cube.019_Cube.038
v -11.581429 -0.504150 12.973557
v -11.581429 -0.404877 12.973557
v -11.581429 -0.504150 9.770554
v -11.581429 -0.404877 9.770554
v -7.377703 -0.504150 12.973557
v -7.377703 -0.404877 12.973557
v -7.377703 -0.504150 9.770554
v -7.377703 -0.404877 9.770554
v -11.581429 0.755477 11.372055
v -11.581429 0.854750 11.372055
v -7.377703 0.755477 11.372055
v -7.377703 0.854750 11.372055
vt 0.375000 0.125000
vt 0.625000 0.125000
vt 0.625000 0.250000
vt 0.375000 0.250000
vt 0.625000 0.500000
vt 0.375000 0.500000
vt 0.375000 0.625000
vt 0.625000 0.625000
vt 0.625000 0.750000
vt 0.375000 0.750000
vt 0.625000 1.000000
vt 0.375000 1.000000
vt 0.125000 0.625000
vt 0.125000 0.750000
vt 0.875000 0.625000
vt 0.875000 0.750000
vt 0.875000 0.500000
vt 0.125000 0.500000
vt 0.375000 0.000000
vt 0.625000 0.000000
vn -1.0000 0.0000 0.0000
vn 0.0000 0.0000 -1.0000
vn 1.0000 0.0000 0.0000
vn 0.0000 0.0000 1.0000
vn 0.0000 -0.7860 -0.6182
vn 0.0000 0.7860 0.6182
vn 0.0000 0.7860 -0.6182
vn 0.0000 -0.7860 0.6182
s off
f 9/1/1 10/2/1 4/3/1 3/4/1
f 3/4/2 4/3/2 8/5/2 7/6/2
f 11/7/3 12/8/3 6/9/3 5/10/3
f 5/10/4 6/9/4 2/11/4 1/12/4
f 9/13/5 11/7/5 5/10/5 1/14/5
f 12/8/6 10/15/6 2/16/6 6/9/6
f 8/5/7 4/17/7 10/15/7 12/8/7
f 3/18/8 7/6/8 11/7/8 9/13/8
f 7/6/3 8/5/3 12/8/3 11/7/3
f 1/19/1 2/20/1 10/2/1 9/1/1
