# Blender v2.92.0 OBJ File: 'istana3_28256_autosave_21692_autosave.blend'
# www.blender.org
o Cube.014_Cube.043
v -9.772239 0.200073 10.442940
v -9.772239 0.532566 10.442940
v -9.212787 0.200073 10.428339
v -9.212787 0.532566 10.428339
v -9.751533 0.200073 11.236355
v -9.751533 0.532566 11.236355
v -9.192080 0.200073 11.221754
v -9.192080 0.532566 11.221754
v -9.492513 0.200073 10.435639
v -9.492513 0.751391 10.435639
v -9.471807 0.200073 11.229054
v -9.471807 0.751391 11.229054
vt 0.375000 0.125000
vt 0.625000 0.125000
vt 0.625000 0.250000
vt 0.375000 0.250000
vt 0.625000 0.500000
vt 0.375000 0.500000
vt 0.375000 0.625000
vt 0.625000 0.625000
vt 0.625000 0.750000
vt 0.375000 0.750000
vt 0.625000 1.000000
vt 0.375000 1.000000
vt 0.125000 0.625000
vt 0.125000 0.750000
vt 0.875000 0.625000
vt 0.875000 0.750000
vt 0.875000 0.500000
vt 0.125000 0.500000
vt 0.375000 0.000000
vt 0.625000 0.000000
vn -0.0261 0.0000 -0.9997
vn 0.9997 0.0000 -0.0261
vn 0.0261 0.0000 0.9997
vn -0.9997 0.0000 0.0261
vn 0.0000 -1.0000 0.0000
vn -0.6158 0.7877 0.0161
vn 0.6158 0.7877 -0.0161
s off
f 9/1/1 10/2/1 4/3/1 3/4/1
f 3/4/2 4/3/2 8/5/2 7/6/2
f 11/7/3 12/8/3 6/9/3 5/10/3
f 5/10/4 6/9/4 2/11/4 1/12/4
f 9/13/5 11/7/5 5/10/5 1/14/5
f 12/8/6 10/15/6 2/16/6 6/9/6
f 8/5/7 4/17/7 10/15/7 12/8/7
f 3/18/5 7/6/5 11/7/5 9/13/5
f 7/6/3 8/5/3 12/8/3 11/7/3
f 1/19/1 2/20/1 10/2/1 9/1/1
