# Blender v2.92.0 OBJ File: 'istana3_28256_autosave_21692_autosave.blend'
# www.blender.org
o Cube.018_Cube.039
v -11.790356 -1.993534 11.525502
v -11.790356 -1.012931 11.525502
v -11.790356 -1.993534 10.714776
v -11.790356 -1.012931 10.714776
v -11.094713 -1.993534 11.525502
v -11.094713 -1.012931 11.525502
v -11.094713 -1.993534 10.714776
v -11.094713 -1.012931 10.714776
v -12.044710 -1.993534 10.992923
v -12.044710 -1.012931 10.992923
v -11.094713 -1.993534 10.992923
v -11.094713 -1.012931 10.992923
v -12.044710 -1.993534 11.259212
v -11.094713 -1.012931 11.259212
v -12.044710 -1.012931 11.259212
v -11.094713 -1.993534 11.259212
vt 0.375000 0.164229
vt 0.625000 0.164229
vt 0.625000 0.250000
vt 0.375000 0.250000
vt 0.625000 0.500000
vt 0.375000 0.500000
vt 0.375000 0.667885
vt 0.625000 0.667885
vt 0.625000 0.750000
vt 0.375000 0.750000
vt 0.625000 1.000000
vt 0.375000 1.000000
vt 0.125000 0.667885
vt 0.125000 0.750000
vt 0.875000 0.667885
vt 0.875000 0.750000
vt 0.875000 0.500000
vt 0.875000 0.585771
vt 0.625000 0.585771
vt 0.125000 0.500000
vt 0.375000 0.585771
vt 0.125000 0.585771
vt 0.375000 0.082115
vt 0.625000 0.082115
vt 0.375000 0.000000
vt 0.625000 0.000000
vn -0.7380 0.0000 -0.6748
vn 0.0000 0.0000 -1.0000
vn 1.0000 0.0000 0.0000
vn 0.0000 0.0000 1.0000
vn 0.0000 -1.0000 0.0000
vn 0.0000 1.0000 0.0000
vn -1.0000 0.0000 0.0000
vn -0.7231 0.0000 0.6907
s off
f 9/1/1 10/2/1 4/3/1 3/4/1
f 3/4/2 4/3/2 8/5/2 7/6/2
f 16/7/3 14/8/3 6/9/3 5/10/3
f 5/10/4 6/9/4 2/11/4 1/12/4
f 13/13/5 16/7/5 5/10/5 1/14/5
f 14/8/6 15/15/6 2/16/6 6/9/6
f 8/5/6 4/17/6 10/18/6 12/19/6
f 3/20/5 7/6/5 11/21/5 9/22/5
f 7/6/3 8/5/3 12/19/3 11/21/3
f 13/23/7 15/24/7 10/2/7 9/1/7
f 1/25/8 2/26/8 15/24/8 13/23/8
f 12/19/6 10/18/6 15/15/6 14/8/6
f 9/22/5 11/21/5 16/7/5 13/13/5
f 11/21/3 12/19/3 14/8/3 16/7/3
