# Blender v2.92.0 OBJ File: 'istana3_28256_autosave_21692_autosave.blend'
# www.blender.org
o Cube.206_Cube.280
v 7.078476 -0.793153 9.881284
v 7.082944 -0.780766 9.885159
v 6.898161 -0.739928 9.996634
v 6.911834 -0.702020 10.008492
v 7.073305 -0.787695 9.869801
v 7.077772 -0.775309 9.873675
v 6.882334 -0.723226 9.961490
v 6.896006 -0.685318 9.973348
v 7.136806 -0.779888 9.845537
v 7.143372 -0.770379 9.851967
v 7.138360 -0.765982 9.837219
v 7.135876 -0.783354 9.834125
v 7.249228 -0.794626 9.791327
v 7.247866 -0.786906 9.789867
v 7.300055 -0.778073 9.792050
v 7.254797 -0.789065 9.784152
v 7.105116 -0.792660 9.859195
v 7.112190 -0.763496 9.871279
v 7.102014 -0.789063 9.854898
v 7.109531 -0.756442 9.868540
v 7.113953 -0.794313 9.855718
v 7.110851 -0.789424 9.851944
v 7.116396 -0.766808 9.858582
v 7.114030 -0.757543 9.859278
v 7.173907 -0.692068 9.846169
v 7.169893 -0.687024 9.848642
v 7.168036 -0.693346 9.851072
v 7.163500 -0.689226 9.850399
v 7.079900 -0.814917 9.854860
v 7.080247 -0.814493 9.856075
v 7.082692 -0.815864 9.853577
v 7.081112 -0.815578 9.853484
v 7.078591 -0.816496 9.854525
v 7.077149 -0.817177 9.855269
v 7.081308 -0.819440 9.852640
v 7.080588 -0.817590 9.853186
v 7.169108 -0.788429 9.820065
v 7.167143 -0.784239 9.831148
v 7.171594 -0.774494 9.835465
v 7.168500 -0.771578 9.821819
v 7.179331 -0.780720 9.813975
v 7.191197 -0.786303 9.818851
v 7.193879 -0.779036 9.821433
v 7.260396 -0.783159 9.804276
v 7.177432 -0.795556 9.827948
v 7.189340 -0.797401 9.822673
v 7.188879 -0.807986 9.821583
v 7.200787 -0.809831 9.816308
v 7.208865 -0.826379 9.818268
v 7.212359 -0.826920 9.816720
v 7.299089 -0.824223 9.808572
v 7.310662 -0.841312 9.808984
vt 0.375000 0.000000
vt 0.625000 0.000000
vt 0.625000 0.250000
vt 0.375000 0.250000
vt 0.625000 0.500000
vt 0.375000 0.500000
vt 0.625000 0.750000
vt 0.375000 0.750000
vt 0.625000 0.000000
vt 0.375000 0.000000
vt 0.375000 0.000000
vt 0.625000 0.000000
vt 0.125000 0.500000
vt 0.125000 0.750000
vt 0.875000 0.500000
vt 0.875000 0.750000
vt 0.125000 0.750000
vt 0.375000 0.750000
vt 0.375000 0.750000
vt 0.125000 0.750000
vt 0.125000 0.750000
vt 0.375000 0.750000
vt 0.375000 0.750000
vt 0.125000 0.750000
vt 0.625000 0.750000
vt 0.875000 0.750000
vt 0.875000 0.750000
vt 0.625000 0.750000
vt 0.625000 0.750000
vt 0.625000 1.000000
vt 0.375000 1.000000
vt 0.625000 0.000000
vt 0.375000 0.000000
vt 0.375000 0.000000
vt 0.625000 0.000000
vt 0.625000 0.750000
vt 0.875000 0.750000
vt 0.875000 0.750000
vt 0.625000 0.750000
vt 0.375000 0.750000
vt 0.875000 0.750000
vt 0.125000 0.750000
vt 0.375000 0.000000
vt 0.625000 0.000000
vt 0.625000 0.000000
vt 0.625000 0.000000
vt 0.125000 0.750000
vt 0.375000 0.750000
vt 0.625000 0.750000
vt 0.875000 0.750000
vt 0.875000 0.750000
vt 0.625000 0.750000
vt 0.125000 0.750000
vt 0.375000 0.750000
vt 0.375000 0.000000
vt 0.375000 0.000000
vt 0.375000 0.750000
vt 0.125000 0.750000
vt 0.125000 0.750000
vt 0.375000 0.750000
vt 0.375000 0.000000
vt 0.375000 0.000000
vt 0.625000 0.750000
vt 0.375000 0.750000
vt 0.875000 0.750000
vt 0.375000 0.000000
vt 0.625000 0.000000
vt 0.125000 0.750000
vt 0.375000 0.000000
vt 0.375000 0.000000
vt 0.375000 0.000000
vt 0.375000 0.000000
vt 0.375000 0.000000
vt 0.375000 0.000000
vt 0.375000 0.000000
vt 0.375000 0.000000
vn 0.1120 -0.9353 0.3356
vn 0.5150 0.1262 0.8478
vn -0.0131 0.4342 0.9007
vn -0.4676 -0.6286 0.6215
vn -0.4430 0.8925 -0.0850
vn -0.9060 -0.1497 -0.3959
vn -0.1875 0.8764 -0.4436
vn -0.4781 -0.3914 -0.7863
vn 0.6919 -0.0057 0.7219
vn 0.6224 -0.7474 0.2323
vn 0.3173 -0.7671 0.5576
vn 0.4952 0.2599 0.8290
vn 0.0084 -0.9996 0.0262
vn -0.1829 -0.3051 -0.9346
vn 0.3332 0.6949 0.6372
vn 0.0342 -0.9805 0.1937
vn -0.2492 -0.2110 -0.9452
vn -0.3863 -0.6237 -0.6795
vn -0.4998 0.4066 -0.7647
vn -0.1872 0.8533 -0.4866
vn 0.6167 0.3777 0.6907
vn 0.2644 -0.7636 0.5891
vn 0.4352 0.2391 0.8679
vn -0.0390 0.1805 -0.9828
vn -0.5943 0.7923 0.1382
vn -0.6558 0.1990 -0.7282
vn 0.4078 0.0405 0.9121
vn 0.2643 -0.5374 0.8008
vn 0.4421 -0.7059 -0.5533
vn 0.2045 -0.9100 -0.3605
vn 0.6257 -0.7689 -0.1315
vn -0.2104 0.2251 -0.9513
vn -0.7934 0.5594 0.2399
vn -0.4671 0.0920 -0.8794
vn 0.2687 -0.8670 -0.4197
vn -0.3056 0.2027 -0.9303
vn -0.2068 0.0749 0.9755
vn -0.6334 0.6253 -0.4558
vn -0.8614 -0.2092 0.4628
vn -0.5998 0.4393 -0.6687
vn -0.0584 0.8863 -0.4593
vn -0.1871 -0.6877 -0.7014
vn 0.4663 0.2946 0.8341
vn 0.1513 -0.8918 0.4263
vn -0.4171 -0.0119 -0.9088
vn -0.4391 -0.1323 -0.8886
vn -0.3516 -0.1916 -0.9163
vn -0.4013 0.0269 -0.9155
vn -0.1884 -0.1510 -0.9704
vn -0.4248 -0.3082 -0.8512
vn -0.0905 -0.0852 -0.9922
s 1
f 1/1/1 2/2/2 4/3/3 3/4/4
f 3/4/4 4/3/3 8/5/5 7/6/6
f 7/6/6 8/5/5 6/7/7 5/8/8
f 23/9/9 21/10/10 9/11/11 10/12/12
f 3/13/4 7/6/6 5/8/8 1/14/1
f 8/5/5 4/15/3 2/16/2 6/7/7
f 42/17/13 41/18/14 16/19/15 13/20/16
f 21/21/10 22/22/17 12/23/18 9/24/11
f 24/25/19 23/26/9 10/27/12 11/28/20
f 22/22/17 24/25/19 11/28/20 12/23/18
f 16/19/15 15/29/21 14/30/22 13/31/16
f 43/32/23 42/33/13 13/34/16 14/35/22
f 44/36/24 43/37/23 14/38/22 15/29/21
f 41/18/14 44/36/24 15/29/21 16/19/15
f 5/8/8 6/7/7 20/39/25 19/40/26
f 6/7/7 2/16/2 18/41/27 20/39/25
f 1/14/1 5/8/8 19/40/26 17/42/28
f 2/2/2 1/1/1 17/43/28 18/44/27
f 19/40/26 20/39/25 24/25/19 22/22/17
f 18/44/27 23/9/9 25/45/29 26/46/30
f 22/22/17 21/21/10 31/47/31 32/48/32
f 18/44/27 17/43/28 21/10/10 23/9/9
f 28/49/33 26/50/30 25/51/29 27/52/34
f 23/26/9 24/25/19 27/52/34 25/51/29
f 20/39/25 18/41/27 26/50/30 28/49/33
f 24/25/19 20/39/25 28/49/33 27/52/34
f 32/48/32 31/47/31 35/53/35 36/54/36
f 21/10/10 17/43/28 30/55/37 31/56/31
f 17/42/28 19/40/26 29/57/38 30/58/37
f 19/40/26 22/22/17 32/48/32 29/57/38
f 34/59/39 33/60/40 36/54/36 35/53/35
f 31/56/31 30/55/37 34/61/39 35/62/35
f 29/57/38 32/48/32 36/54/36 33/60/40
f 30/58/37 29/57/38 33/60/40 34/59/39
f 12/23/18 11/28/20 40/63/41 37/64/42
f 11/28/20 10/27/12 39/65/43 40/63/41
f 10/12/12 9/11/11 38/66/44 39/67/43
f 9/24/11 12/23/18 37/64/42 38/68/44
f 37/64/42 40/63/41 44/36/24 41/18/14
f 40/63/41 39/65/43 43/37/23 44/36/24
f 39/67/43 38/66/44 42/33/13 43/32/23
f 38/68/44 37/64/42 41/18/14 42/17/13
f 38/66/44 42/33/13 46/69/45 45/70/46
f 45/70/46 46/69/45 48/71/47 47/72/48
f 47/72/48 48/71/47 50/73/49 49/74/50
f 50/73/49 48/71/47 51/75/51 52/76/51
