# Blender v2.92.0 OBJ File: 'istana3_28256_autosave_21692_autosave.blend'
# www.blender.org
o Cylinder.031
v -2.061266 -1.884839 -2.717239
v -2.061266 1.265057 -2.717239
v -2.071188 -1.884839 -2.604195
v -2.071188 1.265057 -2.604195
v -2.103449 -1.884839 -2.495206
v -2.103449 1.265057 -2.495206
v -2.156808 -1.884839 -2.394461
v -2.156808 1.265057 -2.394461
v -2.229216 -1.884839 -2.305830
v -2.229216 1.265057 -2.305830
v -2.317889 -1.884839 -2.232721
v -2.317889 1.265057 -2.232721
v -2.419420 -1.884839 -2.177942
v -2.419420 1.265057 -2.177942
v -2.529907 -1.884839 -2.143598
v -2.529907 1.265057 -2.143598
v -2.645103 -1.884839 -2.131010
v -2.645103 1.265057 -2.131010
v -2.760584 -1.884839 -2.140661
v -2.760584 1.265057 -2.140661
v -2.871909 -1.884839 -2.172180
v -2.871909 1.265057 -2.172180
v -2.974802 -1.884839 -2.224357
v -2.974802 1.265057 -2.224357
v -3.065307 -1.884839 -2.295185
v -3.065307 1.265057 -2.295185
v -3.139948 -1.884839 -2.381943
v -3.139948 1.265057 -2.381943
v -3.195855 -1.884839 -2.481297
v -3.195855 1.265057 -2.481297
v -3.230881 -1.884839 -2.589429
v -3.230881 1.265057 -2.589429
v -3.243678 -1.884839 -2.702184
v -3.243678 1.265057 -2.702184
v -3.233756 -1.884839 -2.815228
v -3.233756 1.265057 -2.815228
v -3.201495 -1.884839 -2.924217
v -3.201495 1.265057 -2.924217
v -3.148135 -1.884839 -3.024962
v -3.148135 1.265057 -3.024962
v -3.075728 -1.884839 -3.113593
v -3.075728 1.265057 -3.113593
v -2.987055 -1.884839 -3.186702
v -2.987055 1.265057 -3.186702
v -2.885524 -1.884839 -3.241481
v -2.885524 1.265057 -3.241481
v -2.775037 -1.884839 -3.275825
v -2.775037 1.265057 -3.275825
v -2.659840 -1.884839 -3.288413
v -2.659840 1.265057 -3.288413
v -2.544359 -1.884839 -3.278762
v -2.544359 1.265057 -3.278762
v -2.433034 -1.884839 -3.247242
v -2.433034 1.265057 -3.247242
v -2.330141 -1.884839 -3.195066
v -2.330141 1.265057 -3.195066
v -2.239635 -1.884839 -3.124237
v -2.239635 1.265057 -3.124237
v -2.164995 -1.884839 -3.037479
v -2.164995 1.265057 -3.037479
v -2.109088 -1.884839 -2.938125
v -2.109088 1.265057 -2.938125
v -2.074063 -1.884839 -2.829993
v -2.074063 1.265057 -2.829993
vt 1.000000 0.500000
vt 1.000000 1.000000
vt 0.968750 1.000000
vt 0.968750 0.500000
vt 0.937500 1.000000
vt 0.937500 0.500000
vt 0.906250 1.000000
vt 0.906250 0.500000
vt 0.875000 1.000000
vt 0.875000 0.500000
vt 0.843750 1.000000
vt 0.843750 0.500000
vt 0.812500 1.000000
vt 0.812500 0.500000
vt 0.781250 1.000000
vt 0.781250 0.500000
vt 0.750000 1.000000
vt 0.750000 0.500000
vt 0.718750 1.000000
vt 0.718750 0.500000
vt 0.687500 1.000000
vt 0.687500 0.500000
vt 0.656250 1.000000
vt 0.656250 0.500000
vt 0.625000 1.000000
vt 0.625000 0.500000
vt 0.593750 1.000000
vt 0.593750 0.500000
vt 0.562500 1.000000
vt 0.562500 0.500000
vt 0.531250 1.000000
vt 0.531250 0.500000
vt 0.500000 1.000000
vt 0.500000 0.500000
vt 0.468750 1.000000
vt 0.468750 0.500000
vt 0.437500 1.000000
vt 0.437500 0.500000
vt 0.406250 1.000000
vt 0.406250 0.500000
vt 0.375000 1.000000
vt 0.375000 0.500000
vt 0.343750 1.000000
vt 0.343750 0.500000
vt 0.312500 1.000000
vt 0.312500 0.500000
vt 0.281250 1.000000
vt 0.281250 0.500000
vt 0.250000 1.000000
vt 0.250000 0.500000
vt 0.218750 1.000000
vt 0.218750 0.500000
vt 0.187500 1.000000
vt 0.187500 0.500000
vt 0.156250 1.000000
vt 0.156250 0.500000
vt 0.125000 1.000000
vt 0.125000 0.500000
vt 0.093750 1.000000
vt 0.093750 0.500000
vt 0.062500 1.000000
vt 0.062500 0.500000
vt 0.296822 0.485388
vt 0.250000 0.490000
vt 0.203179 0.485389
vt 0.158156 0.471731
vt 0.116663 0.449553
vt 0.080295 0.419706
vt 0.050447 0.383337
vt 0.028269 0.341844
vt 0.014612 0.296822
vt 0.010000 0.250000
vt 0.014611 0.203179
vt 0.028269 0.158156
vt 0.050447 0.116663
vt 0.080294 0.080294
vt 0.116663 0.050447
vt 0.158156 0.028269
vt 0.203178 0.014612
vt 0.250000 0.010000
vt 0.296822 0.014612
vt 0.341844 0.028269
vt 0.383337 0.050447
vt 0.419706 0.080294
vt 0.449553 0.116663
vt 0.471731 0.158156
vt 0.485388 0.203178
vt 0.490000 0.250000
vt 0.485388 0.296822
vt 0.471731 0.341844
vt 0.449553 0.383337
vt 0.419706 0.419706
vt 0.383337 0.449553
vt 0.341844 0.471731
vt 0.031250 1.000000
vt 0.031250 0.500000
vt 0.000000 1.000000
vt 0.000000 0.500000
vt 0.750000 0.490000
vt 0.796822 0.485388
vt 0.841844 0.471731
vt 0.883337 0.449553
vt 0.919706 0.419706
vt 0.949553 0.383337
vt 0.971731 0.341844
vt 0.985388 0.296822
vt 0.990000 0.250000
vt 0.985388 0.203178
vt 0.971731 0.158156
vt 0.949553 0.116663
vt 0.919706 0.080294
vt 0.883337 0.050447
vt 0.841844 0.028269
vt 0.796822 0.014612
vt 0.750000 0.010000
vt 0.703178 0.014612
vt 0.658156 0.028269
vt 0.616663 0.050447
vt 0.580294 0.080294
vt 0.550447 0.116663
vt 0.528269 0.158156
vt 0.514611 0.203179
vt 0.510000 0.250000
vt 0.514612 0.296822
vt 0.528269 0.341844
vt 0.550447 0.383337
vt 0.580295 0.419706
vt 0.616663 0.449553
vt 0.658156 0.471731
vt 0.703179 0.485389
vn 0.9962 0.0000 0.0874
vn 0.9589 0.0000 0.2838
vn 0.8837 0.0000 0.4680
vn 0.7744 0.0000 0.6327
vn 0.6361 0.0000 0.7716
vn 0.4748 0.0000 0.8801
vn 0.2968 0.0000 0.9549
vn 0.1086 0.0000 0.9941
vn -0.0833 0.0000 0.9965
vn -0.2724 0.0000 0.9622
vn -0.4523 0.0000 0.8919
vn -0.6163 0.0000 0.7875
vn -0.7581 0.0000 0.6522
vn -0.8715 0.0000 0.4904
vn -0.9513 0.0000 0.3082
vn -0.9936 0.0000 0.1128
vn -0.9962 0.0000 -0.0874
vn -0.9589 0.0000 -0.2838
vn -0.8837 0.0000 -0.4681
vn -0.7744 0.0000 -0.6327
vn -0.6361 0.0000 -0.7716
vn -0.4748 0.0000 -0.8801
vn -0.2968 0.0000 -0.9549
vn -0.1086 0.0000 -0.9941
vn 0.0833 0.0000 -0.9965
vn 0.2724 0.0000 -0.9622
vn 0.4523 0.0000 -0.8919
vn 0.6163 0.0000 -0.7875
vn 0.7581 0.0000 -0.6522
vn 0.8715 0.0000 -0.4904
vn 0.0000 1.0000 -0.0000
vn 0.9513 0.0000 -0.3081
vn 0.9936 0.0000 -0.1128
vn 0.0000 -1.0000 -0.0000
s off
f 1/1/1 2/2/1 4/3/1 3/4/1
f 3/4/2 4/3/2 6/5/2 5/6/2
f 5/6/3 6/5/3 8/7/3 7/8/3
f 7/8/4 8/7/4 10/9/4 9/10/4
f 9/10/5 10/9/5 12/11/5 11/12/5
f 11/12/6 12/11/6 14/13/6 13/14/6
f 13/14/7 14/13/7 16/15/7 15/16/7
f 15/16/8 16/15/8 18/17/8 17/18/8
f 17/18/9 18/17/9 20/19/9 19/20/9
f 19/20/10 20/19/10 22/21/10 21/22/10
f 21/22/11 22/21/11 24/23/11 23/24/11
f 23/24/12 24/23/12 26/25/12 25/26/12
f 25/26/13 26/25/13 28/27/13 27/28/13
f 27/28/14 28/27/14 30/29/14 29/30/14
f 29/30/15 30/29/15 32/31/15 31/32/15
f 31/32/16 32/31/16 34/33/16 33/34/16
f 33/34/17 34/33/17 36/35/17 35/36/17
f 35/36/18 36/35/18 38/37/18 37/38/18
f 37/38/19 38/37/19 40/39/19 39/40/19
f 39/40/20 40/39/20 42/41/20 41/42/20
f 41/42/21 42/41/21 44/43/21 43/44/21
f 43/44/22 44/43/22 46/45/22 45/46/22
f 45/46/23 46/45/23 48/47/23 47/48/23
f 47/48/24 48/47/24 50/49/24 49/50/24
f 49/50/25 50/49/25 52/51/25 51/52/25
f 51/52/26 52/51/26 54/53/26 53/54/26
f 53/54/27 54/53/27 56/55/27 55/56/27
f 55/56/28 56/55/28 58/57/28 57/58/28
f 57/58/29 58/57/29 60/59/29 59/60/29
f 59/60/30 60/59/30 62/61/30 61/62/30
f 4/63/31 2/64/31 64/65/31 62/66/31 60/67/31 58/68/31 56/69/31 54/70/31 52/71/31 50/72/31 48/73/31 46/74/31 44/75/31 42/76/31 40/77/31 38/78/31 36/79/31 34/80/31 32/81/31 30/82/31 28/83/31 26/84/31 24/85/31 22/86/31 20/87/31 18/88/31 16/89/31 14/90/31 12/91/31 10/92/31 8/93/31 6/94/31
f 61/62/32 62/61/32 64/95/32 63/96/32
f 63/96/33 64/95/33 2/97/33 1/98/33
f 1/99/34 3/100/34 5/101/34 7/102/34 9/103/34 11/104/34 13/105/34 15/106/34 17/107/34 19/108/34 21/109/34 23/110/34 25/111/34 27/112/34 29/113/34 31/114/34 33/115/34 35/116/34 37/117/34 39/118/34 41/119/34 43/120/34 45/121/34 47/122/34 49/123/34 51/124/34 53/125/34 55/126/34 57/127/34 59/128/34 61/129/34 63/130/34
