# Blender v2.92.0 OBJ File: 'istana3_28256_autosave_21692_autosave.blend'
# www.blender.org
o Cube.259_Cube.293
v 1.905653 -0.958251 1.467832
v 2.142146 -1.890414 1.690333
v -2.190913 -0.958251 1.519992
v -2.427306 -1.890414 1.748514
v 1.857440 -0.958251 -2.318789
v 2.088461 -1.890414 -2.526016
v -2.239127 -0.958251 -2.266629
v -2.480991 -1.890414 -2.467835
v -2.427306 -0.958251 1.748514
v -2.480991 -0.958251 -2.467835
v 2.142146 -0.958251 1.690333
v 2.088461 -0.958251 -2.526016
vt 0.375000 0.750000
vt 0.625000 0.750000
vt 0.625000 1.000000
vt 0.375000 1.000000
vt 0.375000 0.000000
vt 0.625000 0.000000
vt 0.625000 0.250000
vt 0.375000 0.250000
vt 0.125000 0.500000
vt 0.375000 0.500000
vt 0.125000 0.750000
vt 0.625000 0.500000
vt 0.644039 0.730961
vt 0.855961 0.730961
vt 0.875000 0.750000
vt 0.644039 0.519039
vt 0.855961 0.519039
vt 0.875000 0.500000
vn -0.9999 0.0000 0.0127
vn -0.0127 0.0000 -0.9999
vn 0.0000 -1.0000 -0.0000
vn 0.0127 0.0000 0.9999
vn 0.9999 0.0000 -0.0127
vn 0.0000 1.0000 0.0000
s off
f 4/1/1 9/2/1 10/3/1 8/4/1
f 8/5/2 10/6/2 12/7/2 6/8/2
f 6/9/3 2/10/3 4/1/3 8/11/3
f 2/10/4 11/12/4 9/2/4 4/1/4
f 6/8/5 12/7/5 11/12/5 2/10/5
f 3/13/6 7/14/6 10/15/6 9/2/6
f 1/16/6 3/13/6 9/2/6 11/12/6
f 7/14/6 5/17/6 12/18/6 10/15/6
f 5/17/6 1/16/6 11/12/6 12/18/6
