# Blender v2.92.0 OBJ File: 'istana3_28256_autosave_21692_autosave.blend'
# www.blender.org
o Cone.019
v -0.644083 -0.106296 1.777973
v -0.651851 -0.106296 1.863913
v -0.677042 -0.106296 1.946776
v -0.718686 -0.106296 2.023378
v -0.775185 -0.106296 2.090775
v -0.844367 -0.106296 2.146376
v -0.923574 -0.106296 2.188045
v -1.009760 -0.106296 2.214181
v -1.099615 -0.106296 2.223780
v -1.189686 -0.106296 2.216472
v -1.276510 -0.106296 2.192539
v -1.356751 -0.106296 2.152900
v -1.427327 -0.106296 2.099078
v -1.485523 -0.106296 2.033142
v -1.529105 -0.106296 1.957625
v -1.556397 -0.106296 1.875430
v -1.566350 -0.106296 1.789716
v -1.558583 -0.106296 1.703776
v -1.533392 -0.106296 1.620913
v -1.491747 -0.106296 1.544312
v -1.435248 -0.106296 1.476915
v -1.366066 -0.106296 1.421314
v -1.286860 -0.106296 1.379644
v -1.200673 -0.106296 1.353508
v -1.110818 -0.106296 1.343910
v -1.020748 -0.106296 1.351217
v -0.933923 -0.106296 1.375151
v -0.853682 -0.106296 1.414790
v -0.783107 -0.106296 1.468612
v -0.724910 -0.106296 1.534548
v -0.681328 -0.106296 1.610065
v -0.654037 -0.106296 1.692260
v -1.105217 0.551477 1.783845
vt 0.250000 0.490000
vt 0.250000 0.250000
vt 0.296822 0.485388
vt 0.341844 0.471731
vt 0.383337 0.449553
vt 0.419706 0.419706
vt 0.449553 0.383337
vt 0.471731 0.341844
vt 0.485388 0.296822
vt 0.490000 0.250000
vt 0.485388 0.203178
vt 0.471731 0.158156
vt 0.449553 0.116663
vt 0.419706 0.080294
vt 0.383337 0.050447
vt 0.341844 0.028269
vt 0.296822 0.014612
vt 0.250000 0.010000
vt 0.203178 0.014612
vt 0.158156 0.028269
vt 0.116663 0.050447
vt 0.080294 0.080294
vt 0.050447 0.116663
vt 0.028269 0.158156
vt 0.014611 0.203179
vt 0.010000 0.250000
vt 0.014612 0.296822
vt 0.028269 0.341844
vt 0.050447 0.383337
vt 0.080295 0.419706
vt 0.116663 0.449553
vt 0.158156 0.471731
vt 0.750000 0.490000
vt 0.796822 0.485388
vt 0.841844 0.471731
vt 0.883337 0.449553
vt 0.919706 0.419706
vt 0.949553 0.383337
vt 0.971731 0.341844
vt 0.985388 0.296822
vt 0.990000 0.250000
vt 0.985388 0.203178
vt 0.971731 0.158156
vt 0.949553 0.116663
vt 0.919706 0.080294
vt 0.883337 0.050447
vt 0.841844 0.028269
vt 0.796822 0.014612
vt 0.750000 0.010000
vt 0.703178 0.014612
vt 0.658156 0.028269
vt 0.616663 0.050447
vt 0.580294 0.080294
vt 0.550447 0.116663
vt 0.528269 0.158156
vt 0.514611 0.203179
vt 0.510000 0.250000
vt 0.514612 0.296822
vt 0.528269 0.341844
vt 0.550447 0.383337
vt 0.580295 0.419706
vt 0.616663 0.449553
vt 0.658156 0.471731
vt 0.703179 0.485389
vt 0.203179 0.485389
vn 0.8169 0.5720 0.0738
vn 0.7857 0.5706 0.2389
vn 0.7231 0.5680 0.3931
vn 0.6324 0.5647 0.5302
vn 0.5185 0.5612 0.6451
vn 0.3864 0.5580 0.7344
vn 0.2413 0.5556 0.7957
vn 0.0884 0.5543 0.8276
vn -0.0673 0.5543 0.8296
vn -0.2210 0.5556 0.8016
vn -0.3675 0.5580 0.7440
vn -0.5019 0.5612 0.6581
vn -0.6187 0.5647 0.5461
vn -0.7128 0.5680 0.4114
vn -0.7794 0.5706 0.2588
vn -0.8148 0.5720 0.0946
vn -0.8169 0.5720 -0.0738
vn -0.7857 0.5706 -0.2389
vn -0.7231 0.5680 -0.3931
vn -0.6325 0.5647 -0.5302
vn -0.5185 0.5612 -0.6451
vn -0.3864 0.5580 -0.7344
vn -0.2413 0.5556 -0.7957
vn -0.0884 0.5543 -0.8276
vn 0.0673 0.5543 -0.8296
vn 0.2210 0.5556 -0.8016
vn 0.3675 0.5580 -0.7440
vn 0.5019 0.5612 -0.6581
vn 0.6187 0.5647 -0.5461
vn 0.7128 0.5680 -0.4114
vn 0.0000 -1.0000 -0.0000
vn 0.7794 0.5706 -0.2588
vn 0.8148 0.5720 -0.0946
s off
f 1/1/1 33/2/1 2/3/1
f 2/3/2 33/2/2 3/4/2
f 3/4/3 33/2/3 4/5/3
f 4/5/4 33/2/4 5/6/4
f 5/6/5 33/2/5 6/7/5
f 6/7/6 33/2/6 7/8/6
f 7/8/7 33/2/7 8/9/7
f 8/9/8 33/2/8 9/10/8
f 9/10/9 33/2/9 10/11/9
f 10/11/10 33/2/10 11/12/10
f 11/12/11 33/2/11 12/13/11
f 12/13/12 33/2/12 13/14/12
f 13/14/13 33/2/13 14/15/13
f 14/15/14 33/2/14 15/16/14
f 15/16/15 33/2/15 16/17/15
f 16/17/16 33/2/16 17/18/16
f 17/18/17 33/2/17 18/19/17
f 18/19/18 33/2/18 19/20/18
f 19/20/19 33/2/19 20/21/19
f 20/21/20 33/2/20 21/22/20
f 21/22/21 33/2/21 22/23/21
f 22/23/22 33/2/22 23/24/22
f 23/24/23 33/2/23 24/25/23
f 24/25/24 33/2/24 25/26/24
f 25/26/25 33/2/25 26/27/25
f 26/27/26 33/2/26 27/28/26
f 27/28/27 33/2/27 28/29/27
f 28/29/28 33/2/28 29/30/28
f 29/30/29 33/2/29 30/31/29
f 30/31/30 33/2/30 31/32/30
f 1/33/31 2/34/31 3/35/31 4/36/31 5/37/31 6/38/31 7/39/31 8/40/31 9/41/31 10/42/31 11/43/31 12/44/31 13/45/31 14/46/31 15/47/31 16/48/31 17/49/31 18/50/31 19/51/31 20/52/31 21/53/31 22/54/31 23/55/31 24/56/31 25/57/31 26/58/31 27/59/31 28/60/31 29/61/31 30/62/31 31/63/31 32/64/31
f 31/32/32 33/2/32 32/65/32
f 32/65/33 33/2/33 1/1/33
