# Blender v2.92.0 OBJ File: 'istana3_28256_autosave_21692_autosave.blend'
# www.blender.org
o Cone.020
v 2.704547 -0.667347 1.798139
v 2.698025 -0.667347 1.871251
v 2.676848 -0.667347 1.941744
v 2.641830 -0.667347 2.006907
v 2.594318 -0.667347 2.064238
v 2.536137 -0.667347 2.111532
v 2.469523 -0.667347 2.146973
v 2.397036 -0.667347 2.169197
v 2.321462 -0.667347 2.177352
v 2.245704 -0.667347 2.171124
v 2.172675 -0.667347 2.150752
v 2.105180 -0.667347 2.117019
v 2.045814 -0.667347 2.071222
v 1.996857 -0.667347 2.015120
v 1.960192 -0.667347 1.950868
v 1.937227 -0.667347 1.880938
v 1.928845 -0.667347 1.808015
v 1.935368 -0.667347 1.734903
v 1.956545 -0.667347 1.664411
v 1.991562 -0.667347 1.599247
v 2.039074 -0.667347 1.541916
v 2.097255 -0.667347 1.494622
v 2.163869 -0.667347 1.459182
v 2.236356 -0.667347 1.436957
v 2.311931 -0.667347 1.428802
v 2.387689 -0.667347 1.435030
v 2.460718 -0.667347 1.455402
v 2.528213 -0.667347 1.489136
v 2.587579 -0.667347 1.534933
v 2.636536 -0.667347 1.591035
v 2.673201 -0.667347 1.655286
v 2.696166 -0.667347 1.725217
v 2.316696 -0.051333 1.803077
vt 0.250000 0.490000
vt 0.250000 0.250000
vt 0.296822 0.485388
vt 0.341844 0.471731
vt 0.383337 0.449553
vt 0.419706 0.419706
vt 0.449553 0.383337
vt 0.471731 0.341844
vt 0.485388 0.296822
vt 0.490000 0.250000
vt 0.485388 0.203178
vt 0.471731 0.158156
vt 0.449553 0.116663
vt 0.419706 0.080294
vt 0.383337 0.050447
vt 0.341844 0.028269
vt 0.296822 0.014612
vt 0.250000 0.010000
vt 0.203178 0.014612
vt 0.158156 0.028269
vt 0.116663 0.050447
vt 0.080294 0.080294
vt 0.050447 0.116663
vt 0.028269 0.158156
vt 0.014611 0.203179
vt 0.010000 0.250000
vt 0.014612 0.296822
vt 0.028269 0.341844
vt 0.050447 0.383337
vt 0.080295 0.419706
vt 0.116663 0.449553
vt 0.158156 0.471731
vt 0.750000 0.490000
vt 0.796822 0.485388
vt 0.841844 0.471731
vt 0.883337 0.449553
vt 0.919706 0.419706
vt 0.949553 0.383337
vt 0.971731 0.341844
vt 0.985388 0.296822
vt 0.990000 0.250000
vt 0.985388 0.203178
vt 0.971731 0.158156
vt 0.949553 0.116663
vt 0.919706 0.080294
vt 0.883337 0.050447
vt 0.841844 0.028269
vt 0.796822 0.014612
vt 0.750000 0.010000
vt 0.703178 0.014612
vt 0.658156 0.028269
vt 0.616663 0.050447
vt 0.580294 0.080294
vt 0.550447 0.116663
vt 0.528269 0.158156
vt 0.514611 0.203179
vt 0.510000 0.250000
vt 0.514612 0.296822
vt 0.528269 0.341844
vt 0.550447 0.383337
vt 0.580295 0.419706
vt 0.616663 0.449553
vt 0.658156 0.471731
vt 0.703179 0.485389
vt 0.203179 0.485389
vn 0.8441 0.5309 0.0753
vn 0.8123 0.5298 0.2440
vn 0.7481 0.5279 0.4020
vn 0.6551 0.5254 0.5429
vn 0.5377 0.5228 0.6615
vn 0.4011 0.5204 0.7539
vn 0.2506 0.5186 0.8175
vn 0.0918 0.5176 0.8507
vn -0.0701 0.5176 0.8528
vn -0.2297 0.5186 0.8236
vn -0.3818 0.5204 0.7639
vn -0.5207 0.5228 0.6750
vn -0.6411 0.5254 0.5594
vn -0.7377 0.5279 0.4209
vn -0.8058 0.5298 0.2646
vn -0.8419 0.5309 0.0968
vn -0.8441 0.5309 -0.0753
vn -0.8123 0.5298 -0.2440
vn -0.7481 0.5279 -0.4020
vn -0.6551 0.5254 -0.5429
vn -0.5377 0.5228 -0.6615
vn -0.4011 0.5204 -0.7539
vn -0.2506 0.5186 -0.8175
vn -0.0918 0.5176 -0.8507
vn 0.0701 0.5176 -0.8528
vn 0.2297 0.5186 -0.8236
vn 0.3818 0.5204 -0.7639
vn 0.5207 0.5228 -0.6750
vn 0.6411 0.5254 -0.5594
vn 0.7377 0.5279 -0.4209
vn 0.0000 -1.0000 -0.0000
vn 0.8058 0.5298 -0.2646
vn 0.8419 0.5309 -0.0968
s off
f 1/1/1 33/2/1 2/3/1
f 2/3/2 33/2/2 3/4/2
f 3/4/3 33/2/3 4/5/3
f 4/5/4 33/2/4 5/6/4
f 5/6/5 33/2/5 6/7/5
f 6/7/6 33/2/6 7/8/6
f 7/8/7 33/2/7 8/9/7
f 8/9/8 33/2/8 9/10/8
f 9/10/9 33/2/9 10/11/9
f 10/11/10 33/2/10 11/12/10
f 11/12/11 33/2/11 12/13/11
f 12/13/12 33/2/12 13/14/12
f 13/14/13 33/2/13 14/15/13
f 14/15/14 33/2/14 15/16/14
f 15/16/15 33/2/15 16/17/15
f 16/17/16 33/2/16 17/18/16
f 17/18/17 33/2/17 18/19/17
f 18/19/18 33/2/18 19/20/18
f 19/20/19 33/2/19 20/21/19
f 20/21/20 33/2/20 21/22/20
f 21/22/21 33/2/21 22/23/21
f 22/23/22 33/2/22 23/24/22
f 23/24/23 33/2/23 24/25/23
f 24/25/24 33/2/24 25/26/24
f 25/26/25 33/2/25 26/27/25
f 26/27/26 33/2/26 27/28/26
f 27/28/27 33/2/27 28/29/27
f 28/29/28 33/2/28 29/30/28
f 29/30/29 33/2/29 30/31/29
f 30/31/30 33/2/30 31/32/30
f 1/33/31 2/34/31 3/35/31 4/36/31 5/37/31 6/38/31 7/39/31 8/40/31 9/41/31 10/42/31 11/43/31 12/44/31 13/45/31 14/46/31 15/47/31 16/48/31 17/49/31 18/50/31 19/51/31 20/52/31 21/53/31 22/54/31 23/55/31 24/56/31 25/57/31 26/58/31 27/59/31 28/60/31 29/61/31 30/62/31 31/63/31 32/64/31
f 31/32/32 33/2/32 32/65/32
f 32/65/33 33/2/33 1/1/33
