# Blender v2.92.0 OBJ File: 'untitled.blend'
# www.blender.org
o Cube.194_Cube.215
v -1.262966 -1.458452 10.289090
v -1.262966 -0.804087 10.289090
v -1.327081 -1.458452 10.257833
v -1.327081 -0.804087 10.257833
v -1.242478 -1.458452 10.247065
v -1.242478 -0.804087 10.247065
v -1.306593 -1.458452 10.215808
v -1.306593 -0.804087 10.215808
vt 0.375000 0.000000
vt 0.625000 0.000000
vt 0.625000 0.250000
vt 0.375000 0.250000
vt 0.625000 0.500000
vt 0.375000 0.500000
vt 0.625000 0.750000
vt 0.375000 0.750000
vt 0.625000 1.000000
vt 0.375000 1.000000
vt 0.125000 0.500000
vt 0.125000 0.750000
vt 0.875000 0.500000
vt 0.875000 0.750000
vn -0.4382 0.0000 0.8989
vn -0.8989 0.0000 -0.4382
vn 0.4382 0.0000 -0.8989
vn 0.8989 0.0000 0.4382
vn 0.0000 -1.0000 0.0000
vn 0.0000 1.0000 -0.0000
s off
f 1/1/1 2/2/1 4/3/1 3/4/1
f 3/4/2 4/3/2 8/5/2 7/6/2
f 7/6/3 8/5/3 6/7/3 5/8/3
f 5/8/4 6/7/4 2/9/4 1/10/4
f 3/11/5 7/6/5 5/8/5 1/12/5
f 8/5/6 4/13/6 2/14/6 6/7/6
