# Blender v2.92.0 OBJ File: 'untitled.blend'
# www.blender.org
mtllib kayu34Mini6.mtl
o Cube.210_Cube.233
v -3.938823 -1.460209 10.263004
v -3.938823 -0.805843 10.263004
v -3.875349 -1.460209 10.230465
v -3.875349 -0.805843 10.230465
v -3.917494 -1.460209 10.304609
v -3.917494 -0.805843 10.304609
v -3.854020 -1.460209 10.272070
v -3.854020 -0.805843 10.272070
vt 0.375000 0.000000
vt 0.625000 0.000000
vt 0.625000 0.250000
vt 0.375000 0.250000
vt 0.625000 0.500000
vt 0.375000 0.500000
vt 0.625000 0.750000
vt 0.375000 0.750000
vt 0.625000 1.000000
vt 0.375000 1.000000
vt 0.125000 0.500000
vt 0.125000 0.750000
vt 0.875000 0.500000
vt 0.875000 0.750000
vn -0.4562 0.0000 -0.8899
vn 0.8899 0.0000 -0.4562
vn 0.4562 0.0000 0.8899
vn -0.8899 0.0000 0.4562
vn 0.0000 -1.0000 0.0000
vn 0.0000 1.0000 0.0000
usemtl None
s off
f 1/1/1 2/2/1 4/3/1 3/4/1
f 3/4/2 4/3/2 8/5/2 7/6/2
f 7/6/3 8/5/3 6/7/3 5/8/3
f 5/8/4 6/7/4 2/9/4 1/10/4
f 3/11/5 7/6/5 5/8/5 1/12/5
f 8/5/6 4/13/6 2/14/6 6/7/6
