# Blender v2.92.0 OBJ File: 'untitled.blend'
# www.blender.org
o Cube.228_Cube.261
v -0.794832 -0.813919 12.672672
v -0.794683 -0.756547 12.672479
v -0.876286 -0.813707 12.672945
v -0.876137 -0.756335 12.672752
v -0.801987 -0.821067 10.545813
v -0.801839 -0.763694 10.545620
v -0.883441 -0.820855 10.546086
v -0.883293 -0.763482 10.545893
vt 0.375000 0.000000
vt 0.625000 0.000000
vt 0.625000 0.250000
vt 0.375000 0.250000
vt 0.625000 0.500000
vt 0.375000 0.500000
vt 0.625000 0.750000
vt 0.375000 0.750000
vt 0.625000 1.000000
vt 0.375000 1.000000
vt 0.125000 0.500000
vt 0.125000 0.750000
vt 0.875000 0.500000
vt 0.875000 0.750000
vn 0.0034 0.0034 1.0000
vn -1.0000 0.0026 0.0034
vn -0.0034 -0.0034 -1.0000
vn 1.0000 -0.0026 -0.0034
vn -0.0026 -1.0000 0.0034
vn 0.0026 1.0000 -0.0034
s off
f 1/1/1 2/2/1 4/3/1 3/4/1
f 3/4/2 4/3/2 8/5/2 7/6/2
f 7/6/3 8/5/3 6/7/3 5/8/3
f 5/8/4 6/7/4 2/9/4 1/10/4
f 3/11/5 7/6/5 5/8/5 1/12/5
f 8/5/6 4/13/6 2/14/6 6/7/6
