# Blender v2.92.0 OBJ File: 'untitled.blend'
# www.blender.org
mtllib tiang4.mtl
o Cube.246_Cube.281
v -0.797045 -1.694617 10.456877
v -0.797045 0.695405 10.456877
v -0.791337 -1.694617 10.554811
v -0.791337 0.695405 10.554811
v -0.899301 -1.694617 10.462836
v -0.899301 0.695405 10.462836
v -0.893593 -1.694617 10.560770
v -0.893593 0.695405 10.560770
vt 0.375000 0.000000
vt 0.625000 0.000000
vt 0.625000 0.250000
vt 0.375000 0.250000
vt 0.625000 0.500000
vt 0.375000 0.500000
vt 0.625000 0.750000
vt 0.375000 0.750000
vt 0.625000 1.000000
vt 0.375000 1.000000
vt 0.125000 0.500000
vt 0.125000 0.750000
vt 0.875000 0.500000
vt 0.875000 0.750000
vn 0.9983 0.0000 -0.0582
vn 0.0582 0.0000 0.9983
vn -0.9983 0.0000 0.0582
vn -0.0582 0.0000 -0.9983
vn 0.0000 -1.0000 0.0000
vn 0.0000 1.0000 0.0000
usemtl None
s off
f 1/1/1 2/2/1 4/3/1 3/4/1
f 3/4/2 4/3/2 8/5/2 7/6/2
f 7/6/3 8/5/3 6/7/3 5/8/3
f 5/8/4 6/7/4 2/9/4 1/10/4
f 3/11/5 7/6/5 5/8/5 1/12/5
f 8/5/6 4/13/6 2/14/6 6/7/6
