# Blender v2.92.0 OBJ File: 'istana3_28256_autosave_21692_autosave.blend'
# www.blender.org
o Cube.006_Cube.007
v 5.077655 0.020971 12.981567
v 5.077655 0.188625 12.981567
v 3.390984 0.020971 12.991548
v 3.390984 0.188625 12.991548
v 5.068527 0.020971 11.438954
v 5.068527 0.188625 11.438954
v 3.381856 0.020971 11.448935
v 3.381856 0.188625 11.448935
v 4.234319 0.020971 12.986558
v 4.251645 0.705980 13.004189
v 4.225192 0.020971 11.443944
v 4.242517 0.705980 11.461575
v 5.077655 0.104798 12.981567
v 3.390984 0.104798 12.991548
v 3.381856 0.104798 11.448935
v 5.068527 0.104798 11.438954
v 4.233854 0.363476 11.452760
v 4.242982 0.363476 12.995373
v 5.077655 0.146712 12.981567
v 3.390984 0.146712 12.991548
v 3.381856 0.146712 11.448935
v 5.068527 0.146712 11.438954
v 4.238185 0.534728 11.457168
v 4.247313 0.534728 12.999781
v 5.078742 0.142921 13.163815
v 5.078742 0.184835 13.163815
v 4.252732 0.702189 13.186436
v 3.392072 0.184835 13.173796
v 3.392072 0.142921 13.173796
v 4.248401 0.530937 13.182028
v 4.241339 0.710084 11.264236
v 5.067349 0.192730 11.241616
v 3.380679 0.192730 11.251596
v 3.380679 0.150816 11.251596
v 5.067349 0.150816 11.241616
v 4.237008 0.538832 11.259829
v 5.155429 0.146712 12.981105
v 5.155429 0.188625 12.981105
v 5.146301 0.188625 11.438491
v 5.146301 0.146712 11.438491
v 5.156517 0.142921 13.163352
v 5.156517 0.184835 13.163352
v 5.145123 0.192730 11.241153
v 5.145123 0.150816 11.241153
v 3.315538 0.188625 12.991997
v 3.306410 0.188625 11.449384
v 3.315538 0.146712 12.991997
v 3.306410 0.146712 11.449384
v 3.304990 0.192730 11.252317
v 3.316626 0.184835 13.174244
v 3.316626 0.142921 13.174244
v 3.304990 0.150816 11.252317
v 1.355271 0.104798 13.003635
v 1.355271 0.020971 13.003635
v 1.346143 0.020971 11.461021
v 1.346143 0.104798 11.461021
v 1.355271 0.146712 13.003635
v 1.346143 0.146712 11.461021
v 1.279825 0.188625 13.004084
v 1.270697 0.188625 11.461471
v 1.279825 0.146712 13.004084
v 1.270697 0.146712 11.461471
v 1.269273 0.192730 11.263889
v 1.280913 0.184835 13.186332
v 1.280913 0.142921 13.186332
v 1.269273 0.150816 11.263889
v 3.338444 -0.227333 9.299286
v 3.338444 -0.269247 9.299286
v 1.325964 -0.189275 9.274540
v 1.325964 -0.231189 9.274540
v 3.386420 0.020971 12.220242
v 3.386420 0.188625 12.220242
v 5.073091 0.020971 12.210260
v 5.073091 0.188625 12.210260
v 4.247080 0.705980 12.232882
v 4.229755 0.020971 12.215251
v 5.073091 0.104798 12.210260
v 5.073091 0.146712 12.210260
v 3.386420 0.146712 12.220242
v 5.150866 0.188625 12.209798
v 5.150866 0.146712 12.209798
v 3.310974 0.188625 12.220690
v 3.310974 0.146712 12.220690
v 1.350707 0.020971 12.232328
v 1.350707 0.104798 12.232328
v 1.350707 0.146712 12.232328
v 1.275261 0.188625 12.232778
v 1.275261 0.146712 12.232778
v 3.388659 0.020971 12.598689
v 5.075330 0.188625 12.588709
v 4.231995 0.020971 12.593699
v 5.075330 0.104798 12.588709
v 5.075330 0.146712 12.588709
v 5.153105 0.188625 12.588246
v 5.153105 0.146712 12.588246
v 1.352946 0.020971 12.610777
v 3.388659 0.188625 12.598689
v 5.075330 0.020971 12.588709
v 4.249320 0.705980 12.611330
v 3.388659 0.146712 12.598689
v 3.313214 0.188625 12.599138
v 3.313214 0.146712 12.599138
v 1.352946 0.104798 12.610777
v 1.352946 0.146712 12.610777
v 1.277500 0.188625 12.611225
v 1.277500 0.146712 12.611225
v 3.821314 0.447303 12.997869
v 3.803524 0.020971 11.446440
v 3.812652 0.020971 12.989053
v 3.812186 0.447303 11.455255
v 3.807855 0.234137 11.450847
v 3.816983 0.234137 12.993461
v 3.810021 0.340720 11.453051
v 3.819149 0.340720 12.995665
v 3.822402 0.443512 13.180116
v 3.820236 0.336929 13.177912
v 3.811009 0.451407 11.257916
v 3.808843 0.344824 11.255713
v 3.808088 0.020971 12.217746
v 3.816750 0.447303 12.226562
v 3.810327 0.020971 12.596194
v 3.818990 0.447303 12.605010
v 4.023486 0.020971 12.987805
v 4.027351 0.576641 11.458415
v 4.020854 0.298806 11.451803
v 4.024103 0.437724 11.455109
v 4.026174 0.580746 11.261077
v 4.022925 0.441828 11.257771
v 4.018921 0.020971 12.216498
v 4.031915 0.576641 12.229722
v 4.021161 0.020971 12.594947
v 4.034155 0.576641 12.608170
v 4.036479 0.576641 13.001028
v 4.014358 0.020971 11.445191
v 4.029983 0.298806 12.994417
v 4.033231 0.437724 12.997723
v 4.037567 0.572851 13.183275
v 4.034318 0.433933 13.179970
v 3.698725 0.647355 12.605721
v 3.696486 0.647355 12.227273
v 3.911651 0.776694 12.230433
v 3.913890 0.776694 12.608881
v 3.721717 0.609110 12.605585
v 3.719477 0.609110 12.227137
v 3.934642 0.738449 12.230297
v 3.936882 0.738449 12.608746
vt 0.562500 0.750000
vt 0.625000 0.750000
vt 0.625000 0.750000
vt 0.562500 0.750000
vt 0.625000 0.500000
vt 0.625000 0.500000
vt 0.625000 0.500000
vt 0.625000 0.500000
vt 0.562500 0.750000
vt 0.562500 0.625000
vt 0.562500 0.625000
vt 0.875000 0.750000
vt 0.875000 0.750000
vt 0.875000 0.750000
vt 0.875000 0.750000
vt 0.250000 0.625000
vt 0.375000 0.625000
vt 0.375000 0.750000
vt 0.250000 0.750000
vt 0.811332 0.625000
vt 0.875000 0.625000
vt 0.811332 0.750000
vt 0.811332 0.593750
vt 0.875000 0.593750
vt 0.250000 0.593750
vt 0.375000 0.593750
vt 0.562500 0.500000
vt 0.562500 0.500000
vt 0.562500 0.125000
vt 0.562500 0.000000
vt 0.562500 0.000000
vt 0.562500 0.125000
vt 0.375000 0.000000
vt 0.500000 0.000000
vt 0.500000 0.125000
vt 0.375000 0.125000
vt 0.500000 0.593750
vt 0.500000 0.625000
vt 0.375000 0.936332
vt 0.500000 0.936332
vt 0.500000 1.000000
vt 0.375000 1.000000
vt 0.500000 0.750000
vt 0.875000 0.500000
vt 0.875000 0.500000
vt 0.875000 0.500000
vt 0.875000 0.500000
vt 0.375000 0.187500
vt 0.500000 0.187500
vt 0.500000 0.250000
vt 0.375000 0.250000
vt 0.562500 0.593750
vt 0.562500 0.936332
vt 0.562500 1.000000
vt 0.562500 0.250000
vt 0.562500 0.250000
vt 0.562500 0.250000
vt 0.562500 0.250000
vt 0.562500 0.187500
vt 0.562500 0.250000
vt 0.562500 0.187500
vt 0.625000 0.187500
vt 0.625000 0.250000
vt 0.562500 0.250000
vt 0.625000 0.000000
vt 0.625000 0.125000
vt 0.562500 0.156250
vt 0.562500 0.156250
vt 0.875000 0.562500
vt 0.875000 0.500000
vt 0.875000 0.500000
vt 0.875000 0.562500
vt 0.875000 0.625000
vt 0.750000 0.500000
vt 0.750000 0.500000
vt 0.625000 0.625000
vt 0.562500 0.593750
vt 0.625000 0.593750
vt 0.625000 0.625000
vt 0.625000 0.750000
vt 0.562500 0.562500
vt 0.562500 0.500000
vt 0.562500 0.562500
vt 0.625000 0.593750
vt 0.562500 0.750000
vt 0.562500 1.000000
vt 0.625000 1.000000
vt 0.625000 1.000000
vt 0.562500 1.000000
vt 0.562500 0.936332
vt 0.625000 0.936332
vt 0.625000 0.750000
vt 0.562500 0.000000
vt 0.562500 0.000000
vt 0.811332 0.750000
vt 0.625000 0.000000
vt 0.562500 0.875000
vt 0.562500 0.875000
vt 0.625000 0.250000
vt 0.625000 0.250000
vt 0.500000 0.500000
vt 0.500000 0.500000
vt 0.562500 0.500000
vt 0.562500 0.313668
vt 0.562500 0.313668
vt 0.562500 0.500000
vt 0.562500 0.313668
vt 0.375000 0.375000
vt 0.500000 0.375000
vt 0.375000 0.500000
vt 0.562500 0.375000
vt 0.562500 0.375000
vt 0.625000 0.375000
vt 0.625000 0.500000
vt 0.562500 0.500000
vt 0.625000 0.500000
vt 0.562500 0.500000
vt 0.625000 0.250000
vt 0.750000 0.500000
vt 0.500000 0.250000
vt 0.375000 0.250000
vt 0.625000 0.500000
vt 0.562500 0.500000
vt 0.188668 0.500000
vt 0.125000 0.500000
vt 0.125000 0.500000
vt 0.188668 0.500000
vt 0.562500 0.375000
vt 0.375000 0.500000
vt 0.562500 0.250000
vt 0.625000 0.500000
vt 0.562500 0.500000
vt 0.562500 0.313668
vt 0.250000 0.500000
vt 0.250000 0.500000
vt 0.811332 0.500000
vt 0.811332 0.500000
vt 0.625000 0.313668
vt 0.500000 0.313668
vt 0.375000 0.313668
vt 0.562500 0.375000
vt 0.750000 0.750000
vt 0.750000 0.750000
vt 0.625000 0.875000
vt 0.811332 0.500000
vt 0.500000 0.875000
vt 0.375000 0.875000
vt 0.188668 0.593750
vt 0.188668 0.625000
vt 0.750000 0.593750
vt 0.750000 0.625000
vt 0.188668 0.750000
vt 0.125000 0.625000
vt 0.125000 0.750000
vt 0.125000 0.593750
vt 0.811332 0.562500
vt 0.750000 0.562500
vt 0.188668 0.562500
vt 0.125000 0.562500
vt 0.625000 0.562500
vt 0.250000 0.562500
vt 0.625000 0.562500
vt 0.875000 0.593750
vt 0.625000 0.156250
vt 0.500000 0.156250
vt 0.500000 0.562500
vt 0.375000 0.156250
vt 0.375000 0.562500
vt 0.811332 0.593750
vt 0.811332 0.562500
vt 0.750000 0.593750
vt 0.750000 0.593750
vt 0.811332 0.593750
vt 0.750000 0.562500
vt 0.750000 0.562500
vt 0.811332 0.562500
vn -0.0060 0.0000 -1.0000
vn 0.0002 0.9998 0.0208
vn -0.4236 -0.9057 -0.0163
vn 0.0001 0.9998 0.0208
vn 0.0000 -1.0000 -0.0000
vn 0.5307 0.8475 -0.0031
vn -0.5152 0.8570 0.0030
vn -0.0095 0.0000 -1.0000
vn 0.0080 -0.0208 0.9998
vn -0.0045 0.0250 -0.9997
vn 1.0000 0.0000 -0.0059
vn -0.0080 0.0208 -0.9998
vn 0.0030 -0.0149 0.9999
vn 0.0111 -0.0209 0.9997
vn -0.0024 0.0249 -0.9997
vn -0.0111 0.0209 -0.9997
vn -0.0001 -0.9998 -0.0208
vn -0.0014 -0.0148 0.9999
vn -0.0044 -0.0148 0.9999
vn 0.0132 -0.0209 0.9997
vn 0.4128 -0.9106 -0.0214
vn -0.5153 0.8567 0.0209
vn 0.5310 0.8472 0.0145
vn 0.0000 1.0000 -0.0000
vn -0.0132 0.0209 -0.9997
vn -0.0010 0.0249 -0.9997
vn 1.0000 0.0000 -0.0060
vn 0.0060 0.0000 1.0000
vn 0.0059 0.0000 1.0000
vn -0.0059 0.0000 -1.0000
vn -0.0002 -0.9998 -0.0208
vn -1.0000 0.0000 0.0059
vn -1.0000 0.0000 0.0072
vn -1.0000 0.0000 0.0060
vn -0.9996 0.0000 -0.0285
vn 0.0123 0.0000 -0.9999
vn -0.0099 -0.9799 0.1991
vn 0.9999 0.0000 0.0171
vn 0.0099 0.9799 -0.1991
vn 0.0044 0.0148 -0.9999
vn -0.0003 -0.0224 0.9997
vn 0.0014 -0.0225 0.9997
vn 0.0014 0.0148 -0.9999
vn 0.0041 -0.0225 0.9997
vn -0.0030 0.0149 -0.9999
vn 0.0045 -0.0250 0.9997
vn 0.0024 -0.0249 0.9997
vn 0.0010 -0.0249 0.9997
vn -0.0092 -0.0091 0.9999
vn 0.0003 0.0224 -0.9997
vn -0.0014 0.0225 -0.9997
vn -0.0041 0.0225 -0.9997
vn -0.8570 -0.5152 0.0051
vn 0.0092 0.0091 -0.9999
vn 0.8570 0.5152 -0.0051
s off
f 35/1/1 32/2/1 43/3/1 44/4/1
f 8/5/2 33/6/2 49/7/2 46/8/2
f 22/9/3 23/10/3 36/11/3 35/1/3
f 2/12/4 26/13/4 42/14/4 38/15/4
f 76/16/5 11/17/5 5/18/5 73/19/5
f 99/20/6 10/21/6 2/12/6 90/22/6
f 132/23/7 133/24/7 10/21/7 99/20/7
f 129/25/5 134/26/5 11/17/5 76/16/5
f 33/6/8 34/27/8 52/28/8 49/7/8
f 24/29/3 19/30/3 25/31/3 30/32/3
f 1/33/9 13/34/9 18/35/9 9/36/9
f 134/26/10 125/37/10 17/38/10 11/17/10
f 98/39/11 92/40/11 13/41/11 1/42/11
f 11/17/12 17/38/12 16/43/12 5/18/12
f 50/44/4 45/45/4 59/46/4 64/47/4
f 109/48/13 112/49/13 14/50/13 3/51/13
f 13/34/14 19/30/14 24/29/14 18/35/14
f 125/37/15 126/52/15 23/10/15 17/38/15
f 92/40/11 93/53/11 19/54/11 13/41/11
f 17/38/16 23/10/16 22/9/16 16/43/16
f 47/55/17 51/56/17 65/57/17 61/58/17
f 112/49/18 114/59/18 20/60/18 14/50/18
f 116/61/19 115/62/19 28/63/19 29/64/19
f 25/31/20 26/65/20 27/66/20 30/32/20
f 136/67/21 24/29/21 30/32/21 138/68/21
f 107/69/22 4/70/22 28/71/22 115/72/22
f 2/12/23 10/21/23 27/73/23 26/13/23
f 72/74/24 8/5/24 46/8/24 82/75/24
f 36/11/25 31/76/25 32/2/25 35/1/25
f 128/77/26 127/78/26 31/76/26 36/11/26
f 12/79/23 6/80/23 32/2/23 31/76/23
f 113/81/21 21/82/21 34/27/21 118/83/21
f 124/84/22 12/79/22 31/76/22 127/78/22
f 22/9/17 35/1/17 44/4/17 40/85/17
f 37/86/27 38/87/27 42/88/27 41/89/27
f 95/90/11 94/91/11 38/87/11 37/86/11
f 39/92/27 40/85/27 44/4/27 43/3/27
f 25/31/17 19/30/17 37/93/17 41/94/17
f 32/2/4 6/80/4 39/92/4 43/3/4
f 90/22/24 2/12/24 38/15/24 94/95/24
f 26/65/28 25/31/28 41/94/28 42/96/28
f 78/97/5 22/9/5 40/85/5 81/98/5
f 51/56/29 50/99/29 64/100/29 65/57/29
f 21/82/30 15/101/30 56/102/30 58/103/30
f 102/104/5 47/55/5 61/58/5 106/105/5
f 29/64/28 28/63/28 50/99/28 51/56/28
f 28/71/4 4/70/4 45/45/4 50/44/4
f 34/27/31 21/82/31 48/106/31 52/28/31
f 20/60/17 29/64/17 51/56/17 47/55/17
f 100/107/5 20/60/5 47/55/5 102/104/5
f 84/108/32 85/109/32 56/102/32 55/110/32
f 85/109/32 86/111/32 58/103/32 56/102/32
f 88/112/32 87/113/32 60/114/32 62/115/32
f 62/115/33 60/114/33 63/116/33 66/117/33
f 59/118/34 61/58/34 65/57/34 64/100/34
f 82/75/24 46/8/24 60/114/24 87/119/24
f 3/51/29 14/50/29 53/120/29 54/121/29
f 66/117/35 63/116/35 69/122/35 70/123/35
f 89/124/5 3/125/5 54/126/5 96/127/5
f 52/28/17 48/106/17 62/115/17 66/117/17
f 79/128/24 21/82/24 58/103/24 86/111/24
f 46/8/4 49/7/4 63/116/4 60/114/4
f 15/101/30 7/129/30 55/110/30 56/102/30
f 14/50/29 20/60/29 57/130/29 53/120/29
f 67/131/36 68/132/36 70/123/36 69/122/36
f 52/28/37 66/117/37 70/123/37 68/132/37
f 49/7/38 52/28/38 68/132/38 67/131/38
f 63/116/39 49/7/39 67/131/39 69/122/39
f 100/107/24 79/128/24 86/111/24 104/133/24
f 7/129/5 71/134/5 84/135/5 55/110/5
f 101/136/24 82/75/24 87/119/24 105/137/24
f 106/105/32 105/138/32 87/113/32 88/112/32
f 103/139/32 104/133/32 86/111/32 85/109/32
f 96/140/32 103/139/32 85/109/32 84/108/32
f 21/82/5 79/128/5 83/141/5 48/106/5
f 48/106/5 83/141/5 88/112/5 62/115/5
f 93/53/5 78/97/5 81/98/5 95/90/5
f 6/80/24 74/142/24 80/143/24 39/92/24
f 40/85/11 39/92/11 80/144/11 81/98/11
f 97/145/24 72/74/24 82/75/24 101/136/24
f 16/43/11 22/9/11 78/97/11 77/146/11
f 5/18/11 16/43/11 77/146/11 73/147/11
f 131/148/5 129/25/5 76/16/5 91/149/5
f 124/84/7 130/150/7 75/151/7 12/79/7
f 12/79/6 75/151/6 74/142/6 6/80/6
f 91/149/5 76/16/5 73/19/5 98/152/5
f 9/153/5 91/149/5 98/152/5 1/154/5
f 123/155/5 131/148/5 91/149/5 9/153/5
f 4/70/24 97/145/24 101/136/24 45/45/24
f 19/54/5 93/53/5 95/90/5 37/86/5
f 54/121/32 53/120/32 103/139/32 96/140/32
f 53/120/32 57/130/32 104/133/32 103/139/32
f 61/58/32 59/118/32 105/138/32 106/105/32
f 45/45/24 101/136/24 105/137/24 59/46/24
f 20/60/24 100/107/24 104/133/24 57/130/24
f 71/134/5 89/124/5 96/127/5 84/135/5
f 79/128/5 100/107/5 102/104/5 83/141/5
f 83/141/5 102/104/5 106/105/5 88/112/5
f 74/142/24 90/22/24 94/95/24 80/143/24
f 81/98/11 80/144/11 94/91/11 95/90/11
f 77/146/11 78/97/11 93/53/11 92/40/11
f 73/147/11 77/146/11 92/40/11 98/39/11
f 130/150/7 132/23/7 99/20/7 75/151/7
f 75/151/6 99/20/6 90/22/6 74/142/6
f 72/74/7 97/145/7 122/156/7 120/157/7
f 3/125/5 89/124/5 121/158/5 109/159/5
f 8/5/7 72/74/7 120/157/7 110/160/7
f 89/124/5 71/134/5 119/161/5 121/158/5
f 8/5/22 110/160/22 117/162/22 33/6/22
f 126/52/21 113/81/21 118/83/21 128/77/21
f 34/27/40 33/6/40 117/162/40 118/83/40
f 133/24/22 107/69/22 115/72/22 137/163/22
f 20/60/21 114/59/21 116/61/21 29/64/21
f 138/68/41 137/164/41 115/62/41 116/61/41
f 135/165/42 136/67/42 114/59/42 112/49/42
f 15/101/43 21/82/43 113/81/43 111/166/43
f 123/167/44 135/165/44 112/49/44 109/48/44
f 7/129/45 15/101/45 111/166/45 108/168/45
f 71/134/5 7/129/5 108/168/5 119/161/5
f 97/145/7 4/70/7 107/69/7 122/156/7
f 9/36/46 18/35/46 135/165/46 123/167/46
f 18/35/47 24/29/47 136/67/47 135/165/47
f 30/32/48 27/66/48 137/164/48 138/68/48
f 10/21/22 133/24/22 137/163/22 27/73/22
f 23/10/21 126/52/21 128/77/21 36/11/21
f 122/156/49 132/23/49 142/169/49 139/170/49
f 109/159/5 121/158/5 131/148/5 123/155/5
f 110/160/7 120/157/7 130/150/7 124/84/7
f 121/158/5 119/161/5 129/25/5 131/148/5
f 110/160/22 124/84/22 127/78/22 117/162/22
f 118/83/50 117/162/50 127/78/50 128/77/50
f 114/59/21 136/67/21 138/68/21 116/61/21
f 111/166/51 113/81/51 126/52/51 125/37/51
f 108/168/52 111/166/52 125/37/52 134/26/52
f 119/161/5 108/168/5 134/26/5 129/25/5
f 122/156/7 107/69/7 133/24/7 132/23/7
f 142/169/53 141/171/53 145/172/53 146/173/53
f 130/150/54 120/157/54 140/174/54 141/171/54
f 132/23/55 130/150/55 141/171/55 142/169/55
f 120/157/53 122/156/53 139/170/53 140/174/53
f 144/175/7 143/176/7 146/173/7 145/172/7
f 141/171/49 140/174/49 144/175/49 145/172/49
f 139/170/54 142/169/54 146/173/54 143/176/54
f 140/174/55 139/170/55 143/176/55 144/175/55
