# Blender v2.92.0 OBJ File: 'istana3_28256_autosave_21692_autosave.blend'
# www.blender.org
o Cube.005_Cube.006
v 3.186959 -1.605343 9.767920
v 3.186959 -1.641800 9.767920
v 3.239490 -1.605343 9.767609
v 3.239490 -1.641800 9.767609
v 3.186631 -1.605343 9.712454
v 3.186631 -1.641800 9.712454
v 3.239162 -1.605343 9.712143
v 3.239162 -1.641800 9.712143
v 3.239489 -0.161585 9.767609
v 3.186959 -0.161585 9.767920
v 3.239161 -0.161585 9.712143
v 3.186630 -0.161585 9.712454
v 1.486694 -1.572560 9.783527
v 1.486694 -1.609018 9.783527
v 1.539225 -1.572560 9.783216
v 1.539225 -1.609018 9.783216
v 1.486366 -1.572560 9.728061
v 1.486366 -1.609018 9.728061
v 1.538897 -1.572560 9.727751
v 1.538897 -1.609018 9.727751
v 1.539225 -0.128802 9.783216
v 1.486694 -0.128802 9.783527
v 1.538896 -0.128802 9.727751
v 1.486366 -0.128802 9.728061
v 4.459642 -1.763648 11.436114
v 4.512173 -1.763648 11.435803
v 4.459314 -1.763648 11.380649
v 4.511845 -1.763648 11.380338
v 4.512173 -1.109901 11.435803
v 4.459642 -1.109901 11.436114
v 4.511845 -1.109901 11.380338
v 4.459314 -1.109901 11.380649
v 3.943915 -1.774198 11.443924
v 3.996446 -1.774198 11.443614
v 3.943587 -1.774198 11.388458
v 3.996118 -1.774198 11.388148
v 3.996446 -1.120451 11.443614
v 3.943915 -1.120451 11.443924
v 3.996118 -1.120451 11.388148
v 3.943587 -1.120451 11.388458
v 3.901405 -1.069984 11.435366
v 3.901534 -1.122515 11.435366
v 3.901077 -1.069984 11.379900
v 3.901206 -1.122515 11.379899
v 4.555268 -1.120910 11.431497
v 4.555139 -1.068378 11.431498
v 4.554940 -1.120910 11.376031
v 4.554811 -1.068378 11.376032
v 3.900372 -1.069984 11.260765
v 3.900501 -1.122515 11.260765
v 4.554106 -1.068378 11.256897
v 4.554235 -1.120910 11.256896
v 3.903832 -1.149678 11.073143
v 3.903961 -1.202210 11.073143
v 4.557567 -1.148073 11.069275
v 4.557695 -1.200604 11.069274
vt 0.375000 0.000000
vt 0.625000 0.000000
vt 0.625000 0.250000
vt 0.375000 0.250000
vt 0.625000 0.500000
vt 0.375000 0.500000
vt 0.625000 0.750000
vt 0.375000 0.750000
vt 0.625000 1.000000
vt 0.375000 1.000000
vt 0.375000 1.000000
vt 0.375000 0.750000
vt 0.875000 0.500000
vt 0.875000 0.750000
vt 0.125000 0.500000
vt 0.375000 0.500000
vt 0.125000 0.750000
vt 0.375000 0.250000
vt 0.375000 0.000000
vt 0.375000 0.000000
vt 0.625000 0.000000
vt 0.625000 0.250000
vt 0.375000 0.250000
vt 0.625000 0.500000
vt 0.375000 0.500000
vt 0.625000 0.750000
vt 0.375000 0.750000
vt 0.625000 1.000000
vt 0.375000 1.000000
vt 0.375000 1.000000
vt 0.375000 0.750000
vt 0.375000 0.500000
vt 0.375000 0.250000
vt 0.375000 0.000000
vt 0.375000 0.750000
vt 0.375000 1.000000
vt 0.375000 1.000000
vt 0.375000 0.750000
vt 0.375000 0.250000
vt 0.375000 0.500000
vt 0.375000 0.500000
vt 0.375000 0.250000
vt 0.375000 0.000000
vt 0.375000 0.000000
vt 0.375000 0.750000
vt 0.375000 1.000000
vt 0.375000 1.000000
vt 0.375000 0.750000
vt 0.375000 0.250000
vt 0.375000 0.500000
vt 0.375000 0.500000
vt 0.375000 0.250000
vt 0.375000 0.000000
vt 0.375000 0.000000
vt 0.375000 0.750000
vt 0.375000 1.000000
vt 0.375000 1.000000
vt 0.375000 0.750000
vt 0.375000 0.250000
vt 0.375000 0.500000
vt 0.375000 0.500000
vt 0.375000 0.250000
vt 0.375000 0.000000
vt 0.375000 0.000000
vt 0.375000 0.750000
vt 0.375000 0.500000
vt 0.375000 0.500000
vt 0.375000 0.500000
vt 0.375000 0.500000
vt 0.375000 0.750000
vt 0.375000 0.750000
vt 0.375000 0.750000
vn 0.0059 0.0000 1.0000
vn 1.0000 0.0000 -0.0059
vn -0.0059 0.0000 -1.0000
vn -1.0000 0.0000 0.0059
vn 0.0000 -1.0000 0.0000
vn 0.0000 1.0000 0.0000
vn -0.0025 1.0000 0.0000
vn 0.0025 -1.0000 -0.0000
vn -1.0000 -0.0025 0.0059
vn 1.0000 0.0025 -0.0059
vn 0.0046 -0.9204 0.3910
vn 0.9998 0.0025 0.0174
vn -0.0046 0.9204 -0.3910
vn -0.9998 -0.0025 -0.0174
s off
f 1/1/1 2/2/1 4/3/1 3/4/1
f 3/4/2 4/3/2 8/5/2 7/6/2
f 7/6/3 8/5/3 6/7/3 5/8/3
f 5/8/4 6/7/4 2/9/4 1/10/4
f 5/8/4 1/10/4 10/11/4 12/12/4
f 8/5/5 4/13/5 2/14/5 6/7/5
f 9/15/6 11/16/6 12/12/6 10/17/6
f 3/4/2 7/6/2 11/16/2 9/18/2
f 1/1/1 3/4/1 9/18/1 10/19/1
f 7/6/3 5/8/3 12/12/3 11/16/3
f 13/20/1 14/21/1 16/22/1 15/23/1
f 15/23/2 16/22/2 20/24/2 19/25/2
f 19/25/3 20/24/3 18/26/3 17/27/3
f 17/27/4 18/26/4 14/28/4 13/29/4
f 17/27/4 13/29/4 22/30/4 24/31/4
f 15/23/2 19/25/2 23/32/2 21/33/2
f 13/20/1 15/23/1 21/33/1 22/34/1
f 19/25/3 17/27/3 24/31/3 23/32/3
f 27/35/4 25/36/4 30/37/4 32/38/4
f 26/39/2 28/40/2 31/41/2 29/42/2
f 25/43/1 26/39/1 29/42/1 30/44/1
f 28/40/3 27/35/3 32/38/3 31/41/3
f 26/39/5 25/36/5 27/35/5 28/40/5
f 29/42/6 31/41/6 32/38/6 30/37/6
f 35/45/4 33/46/4 38/47/4 40/48/4
f 34/49/2 36/50/2 39/51/2 37/52/2
f 33/53/1 34/49/1 37/52/1 38/54/1
f 36/50/3 35/45/3 40/48/3 39/51/3
f 34/49/5 33/46/5 35/45/5 36/50/5
f 37/52/6 39/51/6 40/48/6 38/47/6
f 43/55/7 41/56/7 46/57/7 48/58/7
f 42/59/8 44/60/8 47/61/8 45/62/8
f 41/63/1 42/59/1 45/62/1 46/64/1
f 44/60/9 43/55/9 49/65/9 50/66/9
f 42/59/9 41/56/9 43/55/9 44/60/9
f 45/62/10 47/61/10 48/58/10 46/57/10
f 52/67/11 50/66/11 54/68/11 56/69/11
f 43/55/7 48/58/7 51/70/7 49/65/7
f 47/61/8 44/60/8 50/66/8 52/67/8
f 48/58/10 47/61/10 52/67/10 51/70/10
f 54/68/3 53/71/3 55/72/3 56/69/3
f 51/70/12 52/67/12 56/69/12 55/72/12
f 49/65/13 51/70/13 55/72/13 53/71/13
f 50/66/14 49/65/14 53/71/14 54/68/14
